<svg id="Capa_1" data-name="Capa 1" xmlns="http://www.w3.org/2000/svg" viewBox="0 0 150 150"><defs><style>.cls-1{fill:#e1e2fc;}.cls-2{fill:#0052a7;}</style></defs><circle class="cls-1" cx="75" cy="75" r="75"/><path class="cls-2" d="M32.93,94.27a2.18,2.18,0,0,1,1.59-.69H46.34V57.12l-9.54,6a2.9,2.9,0,0,1-1.49.4,2.47,2.47,0,0,1-1.83-.75,2.59,2.59,0,0,1-.75-1.93V56a1.91,1.91,0,0,1,.9-1.69l.09-.1L47,45.6l-.2.1a2,2,0,0,1,1.29-.4H57a2.16,2.16,0,0,1,1.59.7,2.18,2.18,0,0,1,.69,1.58v46H70a2.38,2.38,0,0,1,2.29,2.28v5.47A2.38,2.38,0,0,1,70,103.61H34.52a2.18,2.18,0,0,1-1.59-.69,2.23,2.23,0,0,1-.7-1.59V95.86A2.23,2.23,0,0,1,32.93,94.27Z"/><path class="cls-2" d="M85.08,73a12.8,12.8,0,0,1-5.16-4.07,13.24,13.24,0,0,1-3.08-8.64A14.34,14.34,0,0,1,82.1,48.68q5.18-4.27,14.41-4.27,9.63,0,14.7,4.07t5.16,11.82a13,13,0,0,1-3,8.64,10.89,10.89,0,0,1-5.26,4,13.7,13.7,0,0,1,9.64,13.9q0,8.45-5.57,12.92-5.46,4.67-15.59,4.67t-15.5-4.57q-5.67-4.47-5.66-12.92A14,14,0,0,1,85.08,73ZM96.71,94.87q4.07,0,5.86-2t1.88-6.95c0-2.78-.66-4.84-2-6.16s-3.35-2-6.06-2a7.67,7.67,0,0,0-5.66,2A8.67,8.67,0,0,0,88.66,86c0,3,.66,5.3,2,6.75S94,94.87,96.71,94.87Zm-.4-26.62c2.45,0,4.2-.57,5.26-1.69s1.59-2.85,1.59-5.56c0-2.46-.56-4.24-1.69-5.37a6.54,6.54,0,0,0-5-1.69q-3.37,0-5,1.74T90,61q0,3.68,1.59,5.46A6.06,6.06,0,0,0,96.31,68.25Z"/><path class="cls-2" d="M111.58,28.29a2,2,0,0,1,1.44-.63h12.43V14.87a2.12,2.12,0,0,1,2-2H133a2,2,0,0,1,1.43.62,2,2,0,0,1,.62,1.43V27.66h12.52a2.16,2.16,0,0,1,2.06,2.06v5.36a2.16,2.16,0,0,1-2.06,2.06H135V49.93a2.12,2.12,0,0,1-2,2H127.5a2,2,0,0,1-1.43-.62,2,2,0,0,1-.62-1.43V37.14H113A2.14,2.14,0,0,1,111,35.08V29.72A2,2,0,0,1,111.58,28.29Z"/></svg>