<svg id="Capa_1" data-name="Capa 1" xmlns="http://www.w3.org/2000/svg" viewBox="0 0 12.55 9.41"><defs><style>.cls-1{fill:#fff;}</style></defs><path class="cls-1" d="M11,0H1.57A1.57,1.57,0,0,0,0,1.57V7.84A1.57,1.57,0,0,0,1.57,9.41H11a1.57,1.57,0,0,0,1.57-1.57V1.57A1.57,1.57,0,0,0,11,0ZM8.4,4.18l3.32-2.84a.85.85,0,0,1,0,.23V7.84a.9.9,0,0,1,0,.16ZM11,.78l.15,0L6.27,5,1.42.81a.8.8,0,0,1,.15,0ZM.82,8a.37.37,0,0,1,0-.15V1.57a.86.86,0,0,1,0-.23L4.15,4.18Zm.75.64a1,1,0,0,1-.23-.05l3.4-3.89L6,5.79a.38.38,0,0,0,.25.09.43.43,0,0,0,.26-.09L7.8,4.69l3.4,3.89a.79.79,0,0,1-.22.05Z"/></svg>