<svg id="Capa_1" data-name="Capa 1" xmlns="http://www.w3.org/2000/svg" viewBox="0 0 12.4 12.5"><defs><style>.cls-1{fill:#fff;fill-rule:evenodd;}</style></defs><path class="cls-1" d="M9.17,7.47C9,7.39,8.26,7,8.12,6.93s-.24-.09-.35.06-.42.49-.51.59-.19.11-.34,0A4.45,4.45,0,0,1,5.7,6.79a4.81,4.81,0,0,1-.83-1.11A.22.22,0,0,1,5,5.37,3.32,3.32,0,0,0,5.2,5.1a1,1,0,0,0,.16-.25.26.26,0,0,0,0-.27c0-.08-.32-.86-.44-1.17s-.25-.27-.34-.28l-.29,0a.57.57,0,0,0-.42.18,1.73,1.73,0,0,0-.6,1.27,2.91,2.91,0,0,0,.58,1.63A6.33,6.33,0,0,0,6.41,8.64C8,9.32,8,9.11,8.26,9.1a1.57,1.57,0,0,0,1.08-.7,1.42,1.42,0,0,0,.12-.74.88.88,0,0,0-.29-.19ZM6.31,11.16a5,5,0,0,1-2.79-.84l-1.94.62.63-1.88a5.07,5.07,0,0,1,4.1-8,5.07,5.07,0,1,1,0,10.14ZM6.31,0A6.09,6.09,0,0,0,.23,6.09,6,6,0,0,0,1.1,9.23L0,12.5l3.37-1.08A6.09,6.09,0,1,0,6.31,0Z"/></svg>