<svg id="Capa_1" data-name="Capa 1" xmlns="http://www.w3.org/2000/svg" viewBox="0 0 45.49 50"><defs><style>.cls-1{fill:#bfbfbf;}</style></defs><g id="surface1"><path class="cls-1" d="M34.08,21.64V12.18a1.1,1.1,0,0,0-.31-.72L23.17.32A1.05,1.05,0,0,0,22.41,0H5.59A5.6,5.6,0,0,0,0,5.64v31.8A5.57,5.57,0,0,0,5.59,43H18.86a14.33,14.33,0,1,0,15.22-21.4Zm-10.63-18,7.11,7.49H26a2.52,2.52,0,0,1-2.5-2.51ZM5.59,41a3.5,3.5,0,0,1-3.51-3.51V5.64A3.53,3.53,0,0,1,5.59,2.08H21.36V8.64A4.6,4.6,0,0,0,26,13.23h6v8.14c-.31,0-.56,0-.83,0a14.56,14.56,0,0,0-9.51,3.59H8.42a1,1,0,0,0,0,2.08h11.3a16.78,16.78,0,0,0-1.84,3.23H8.42a1,1,0,0,0,0,2.09h8.79a13.49,13.49,0,0,0-.4,3.35,13.86,13.86,0,0,0,1,5.3H5.59Zm25.56,7A12.25,12.25,0,1,1,43.39,35.68,12.27,12.27,0,0,1,31.15,47.93Z"/><path class="cls-1" d="M8.42,21.78H19a1,1,0,0,0,0-2.08H8.42a1,1,0,0,0,0,2.08Z"/><path class="cls-1" d="M36.48,35.46,32.2,40.08V28.7a1,1,0,0,0-2.08,0V40.08L25.8,35.46a1.05,1.05,0,0,0-1.48-.05,1,1,0,0,0-.05,1.47l6.1,6.55a1,1,0,0,0,.76.34,1.05,1.05,0,0,0,.76-.34L38,36.88a1,1,0,1,0-1.52-1.42Z"/></g></svg>