<svg id="Capa_1" data-name="Capa 1" xmlns="http://www.w3.org/2000/svg" viewBox="0 0 37.19 48.28"><defs><style>.cls-1{fill:#bfbfbf;}</style></defs><path class="cls-1" d="M18.39,25.46A12.73,12.73,0,1,0,5.66,12.73,12.74,12.74,0,0,0,18.39,25.46Zm0-21.69a9,9,0,1,1-9,9A9,9,0,0,1,18.39,3.77Z"/><path class="cls-1" d="M26.14,30.38,26,30.33l-.34-.11c-.3-.11-.61-.21-.92-.3s-.44-.12-.67-.18-.58-.14-.87-.19-.55-.09-.83-.13-.5-.08-.76-.1c-.47-.05-.93-.07-1.41-.08H17c-.47,0-.94,0-1.4.08-.26,0-.51.06-.77.1s-.55.07-.82.13-.59.12-.88.19l-.66.18c-.32.09-.62.19-.93.3l-.34.11-.1.05a17.18,17.18,0,0,0-11,16,1.89,1.89,0,0,0,3.77,0,13.42,13.42,0,0,1,8.94-12.62l.77-.25.47-.12c.24-.06.48-.12.72-.16l.61-.1.63-.08c.34,0,.69,0,1,0h3.28c.35,0,.7,0,1.05,0l.63.08.6.1c.24,0,.48.1.72.16l.48.12.77.25A13.42,13.42,0,0,1,33.41,46.4a1.89,1.89,0,0,0,3.78,0A17.18,17.18,0,0,0,26.14,30.38Z"/></svg>