<svg id="Capa_1" data-name="Capa 1" xmlns="http://www.w3.org/2000/svg" viewBox="0 0 76.27 100"><defs><style>.cls-1{fill:#e1e2fc;}.cls-2{fill:#6770f2;}.cls-3{fill:#0052a7;}.cls-4{font-size:12px;fill:#fff;font-family:Montserrat-Bold, Montserrat;font-weight:700;}</style></defs><circle class="cls-1" cx="38.13" cy="50" r="38.13"/><path class="cls-2" d="M37.24,100a1.39,1.39,0,0,1-.57-.12l-24-10.57A1.42,1.42,0,0,1,12,87.45L16.61,76.9a1.43,1.43,0,0,1,.78-.75,1.39,1.39,0,0,1,1.08,0l24,10.57a1.42,1.42,0,0,1,.72,1.86L38.53,99.16a1.38,1.38,0,0,1-.78.74A1.32,1.32,0,0,1,37.24,100ZM17.9,77.46,13.25,88l24,10.57L41.89,88Z"/><path class="cls-2" d="M20,78.32h-.08a.71.71,0,0,1-.62-.78c.16-1.42.39-5.47-.49-7.23C17.23,67.15,13.8,53,16,47.48L16,40a4.15,4.15,0,0,1,1.77-3.36c1.07-.72,2.85-1.13,5.2,1,3.81,3.49,3.93,10,3.28,12.23A6.9,6.9,0,0,1,27.6,54c2.06,1.32,11.74,8.26,6.34,18.89a.7.7,0,0,1-.95.31.71.71,0,0,1-.31-.94C38.07,61.6,27,55.23,26.54,55l-.39-.22,0-.44a5.54,5.54,0,0,0-1.25-3.79l-.33-.35.21-.43c.59-1.27.75-7.78-2.8-11q-2-1.85-3.47-.89A2.77,2.77,0,0,0,17.39,40l.05,7.73-.06.14c-2,4.5.92,18.24,2.69,21.78,1.24,2.49.66,7.79.63,8A.7.7,0,0,1,20,78.32Z"/><path class="cls-2" d="M39.81,87.05a.44.44,0,0,1-.16,0,.7.7,0,0,1-.52-.85c1.7-7.06,5-8.11,5.59-8.23,3.61-1.19,6.61-8.08,6.64-8.15a.71.71,0,0,1,1.3.56c-.14.31-3.31,7.59-7.54,8.94l-.1,0s-3,.68-4.52,7.19A.7.7,0,0,1,39.81,87.05Z"/><path class="cls-2" d="M60.12,66.81h-20a.7.7,0,0,1-.7-.7h0a.7.7,0,0,1,.7-.71h20A2.89,2.89,0,0,0,63,62.51V4.3a2.89,2.89,0,0,0-2.89-2.89H31.27A2.89,2.89,0,0,0,28.38,4.3v32a.7.7,0,0,1-.7.7h0a.7.7,0,0,1-.71-.7V4.3A4.31,4.31,0,0,1,31.27,0H60.12a4.3,4.3,0,0,1,4.3,4.3V62.51A4.3,4.3,0,0,1,60.12,66.81Z"/><path class="cls-2" d="M59.28,10.72H32.12a.71.71,0,0,1-.71-.71.7.7,0,0,1,.71-.7H59.28a.7.7,0,0,1,.7.7A.7.7,0,0,1,59.28,10.72Z"/><path class="cls-2" d="M59.82,56.32H36.47a.7.7,0,0,1-.7-.71.7.7,0,0,1,.7-.7H59.82a.7.7,0,0,1,.71.7A.71.71,0,0,1,59.82,56.32Z"/><rect class="cls-3" x="35.41" y="42.9" width="20.58" height="1.41"/><path class="cls-2" d="M52.06,6.57H42.92a.7.7,0,0,1-.71-.7.71.71,0,0,1,.71-.71h9.14a.71.71,0,0,1,.7.71A.7.7,0,0,1,52.06,6.57Z"/><circle class="cls-2" cx="39.48" cy="5.87" r="0.85"/><circle class="cls-2" cx="45.7" cy="60.8" r="2.32"/><path class="cls-3" d="M45.7,39.87a10.17,10.17,0,1,1,5.44-18.76.71.71,0,0,1,.22,1,.7.7,0,0,1-1,.21,8.76,8.76,0,1,0,4.06,7.4,9,9,0,0,0-.29-2.25.71.71,0,0,1,.5-.86.7.7,0,0,1,.86.5,10,10,0,0,1,.34,2.61A10.18,10.18,0,0,1,45.7,39.87Z"/><path class="cls-3" d="M45.18,34.56l-5.36-5.37a.7.7,0,0,1,0-1,.69.69,0,0,1,1,0l4.3,4.3L55.39,20.61a.71.71,0,0,1,1.07.93Z"/><circle class="cls-3" cx="11.78" cy="21.58" r="11.78"/><text class="cls-4" transform="translate(9.43 25.68)">1</text></svg>