<svg id="Capa_1" data-name="Capa 1" xmlns="http://www.w3.org/2000/svg" viewBox="0 0 76.27 85.95"><defs><style>.cls-1{fill:#e1e2fc;}.cls-2{fill:#0052a7;}.cls-3{fill:#6770f2;}.cls-4{font-size:12px;fill:#fff;font-family:Montserrat-Bold, Montserrat;font-weight:700;}</style></defs><circle class="cls-1" cx="38.13" cy="42.98" r="38.13"/><path class="cls-2" d="M49.73,26.72H26.54a3.17,3.17,0,0,0-3.17,3.17V45.12a3.17,3.17,0,0,0,3.17,3.17H34a.27.27,0,0,1,.23.12L37,52.1a1.42,1.42,0,0,0,1.15.59h0a1.41,1.41,0,0,0,1.15-.58l2.79-3.7a.27.27,0,0,1,.23-.12h7.43a3.17,3.17,0,0,0,3.17-3.17V29.89a3.17,3.17,0,0,0-3.17-3.17Zm1.44,18.4a1.27,1.27,0,0,1-.06.39l-8.88-7.79,8.94-7.42ZM49.73,28.45a1.46,1.46,0,0,1,.72.19L39.06,38.1a1.46,1.46,0,0,1-1.85,0L25.82,28.64a1.46,1.46,0,0,1,.72-.19ZM25.15,45.51a1.67,1.67,0,0,1,0-.39V30.29L34,37.72Zm15.53,1.86-2.55,3.39-2.5-3.38A2,2,0,0,0,34,46.56H26.58l8.81-7.72.72.59a3.17,3.17,0,0,0,4,0l.72-.59,8.81,7.72H42.3a2,2,0,0,0-1.62.81Z"/><path class="cls-3" d="M62.22,39.25V5.53A5.53,5.53,0,0,0,56.69,0H19.57A5.54,5.54,0,0,0,14,5.53V46.7h0V80.42A5.53,5.53,0,0,0,19.57,86H56.69a5.54,5.54,0,0,0,5.54-5.53V39.25ZM31,84.14H19.58a3.72,3.72,0,0,1-3.72-3.72V5.53a3.72,3.72,0,0,1,3.71-3.72H56.69a3.73,3.73,0,0,1,3.72,3.72V80.42a3.73,3.73,0,0,1-3.72,3.72Z"/><path class="cls-3" d="M55.6,13.79H20.66a.91.91,0,0,1,0-1.82H55.6a.91.91,0,0,1,0,1.82Z"/><path class="cls-3" d="M46.31,8.45H34.56a.91.91,0,1,1,0-1.81H46.31a.91.91,0,1,1,0,1.81Z"/><circle class="cls-3" cx="30.14" cy="7.55" r="1.09"/><circle class="cls-3" cx="38.13" cy="78.21" r="2.98"/><path class="cls-3" d="M55.6,72.46H20.66a.91.91,0,0,1,0-1.82H55.6a.91.91,0,1,1,0,1.82Z"/><circle class="cls-2" cx="11.78" cy="14.56" r="11.78"/><text class="cls-4" transform="translate(8.24 18.66)">2</text></svg>