<svg id="Capa_1" data-name="Capa 1" xmlns="http://www.w3.org/2000/svg" viewBox="0 0 76.27 85.95"><defs><style>.cls-1{fill:#e1e2fc;}.cls-2{fill:#6770f2;}.cls-3{fill:#0052a7;}.cls-4{font-size:12px;fill:#fff;font-family:Montserrat-Bold, Montserrat;font-weight:700;letter-spacing:0.01em;}.cls-5{letter-spacing:-0.02em;}.cls-6{letter-spacing:0em;}</style></defs><circle class="cls-1" cx="38.13" cy="42.98" r="38.13"/><path class="cls-2" d="M62.55,39.25V5.53A5.54,5.54,0,0,0,57,0H19.9a5.53,5.53,0,0,0-5.53,5.53V46.7h0V80.42A5.52,5.52,0,0,0,19.9,86H57a5.54,5.54,0,0,0,5.53-5.53V39.25ZM31.31,84.14H19.9a3.73,3.73,0,0,1-3.72-3.72V5.53A3.73,3.73,0,0,1,19.9,1.81H57a3.72,3.72,0,0,1,3.72,3.72V80.42A3.72,3.72,0,0,1,57,84.14Z"/><path class="cls-2" d="M55.93,13.79H21A.91.91,0,0,1,21,12H55.93a.91.91,0,0,1,0,1.82Z"/><path class="cls-2" d="M46.64,8.45H34.88a.91.91,0,1,1,0-1.81H46.64a.91.91,0,0,1,0,1.81Z"/><circle class="cls-2" cx="30.46" cy="7.55" r="1.09"/><circle class="cls-2" cx="38.46" cy="78.21" r="2.98"/><path class="cls-2" d="M55.93,72.46H21a.91.91,0,0,1,0-1.82H55.93a.91.91,0,0,1,0,1.82Z"/><path class="cls-3" d="M49.8,43.7a.64.64,0,0,0-.63.64V50a1.9,1.9,0,0,1-1.9,1.9H29.49a1.9,1.9,0,0,1-1.9-1.9V33.45a1.9,1.9,0,0,1,1.9-1.9h5.63a.63.63,0,0,0,.63-.63.64.64,0,0,0-.63-.64H29.49a3.17,3.17,0,0,0-3.17,3.17V50a3.17,3.17,0,0,0,3.17,3.17H47.27A3.18,3.18,0,0,0,50.44,50V44.34A.64.64,0,0,0,49.8,43.7Z"/><path class="cls-3" d="M49.74,28.65a2.85,2.85,0,0,0-4,0L34.41,40a.57.57,0,0,0-.16.27L32.76,45.6a.63.63,0,0,0,.78.78l5.37-1.49a.5.5,0,0,0,.27-.16l11.31-11.3a2.85,2.85,0,0,0,0-4Zm-14,11.72L45,31.12l3,3-9.25,9.25Zm-.6,1.19L37.58,44l-3.3.91Zm14.4-9-.67.67-3-3,.67-.67a1.58,1.58,0,0,1,2.24,0l.74.74A1.58,1.58,0,0,1,49.59,32.53Z"/><circle class="cls-3" cx="11.78" cy="14.47" r="11.78"/><text class="cls-4" transform="translate(4.35 18.57)">2<tspan class="cls-5" x="7.2" y="0">.</tspan><tspan class="cls-6" x="10.15" y="0">1</tspan></text></svg>