<svg id="Capa_1" data-name="Capa 1" xmlns="http://www.w3.org/2000/svg" viewBox="0 0 76.27 85.95"><defs><style>.cls-1{fill:#e1e2fc;}.cls-2{fill:#6770f2;}.cls-3{fill:#0052a7;}.cls-4{font-size:12px;fill:#fff;font-family:Montserrat-Bold, Montserrat;font-weight:700;}.cls-5{letter-spacing:0.01em;}</style></defs><circle class="cls-1" cx="38.13" cy="42.98" r="38.13"/><path class="cls-2" d="M62.22,39.25V5.53A5.53,5.53,0,0,0,56.69,0H19.57A5.54,5.54,0,0,0,14,5.53V46.7h0V80.42A5.53,5.53,0,0,0,19.57,86H56.69a5.54,5.54,0,0,0,5.54-5.53V39.25ZM31,84.14H19.58a3.72,3.72,0,0,1-3.72-3.72V5.53a3.72,3.72,0,0,1,3.71-3.72H56.69a3.73,3.73,0,0,1,3.72,3.72V80.42a3.73,3.73,0,0,1-3.72,3.72Z"/><path class="cls-2" d="M55.6,13.79H20.66a.91.91,0,0,1,0-1.82H55.6a.91.91,0,0,1,0,1.82Z"/><path class="cls-2" d="M46.31,8.45H34.56a.91.91,0,1,1,0-1.81H46.31a.91.91,0,1,1,0,1.81Z"/><circle class="cls-2" cx="30.14" cy="7.55" r="1.09"/><circle class="cls-2" cx="38.13" cy="78.21" r="2.98"/><path class="cls-2" d="M55.6,72.46H20.66a.91.91,0,0,1,0-1.82H55.6a.91.91,0,1,1,0,1.82Z"/><path class="cls-3" d="M48.09,30.41a1.53,1.53,0,0,0-1.53-1.52H29.7a1.52,1.52,0,0,0-1.52,1.52V55.54a1.53,1.53,0,0,0,1.52,1.53H41.13a1.5,1.5,0,0,0,1.08-.45l5.43-5.43a1.52,1.52,0,0,0,.45-1.08V30.41Zm-18.26.13H46.44v19H42.12A1.53,1.53,0,0,0,40.6,51.1v4.31H29.83ZM42.25,54.25v-3h3Z"/><path class="cls-3" d="M41.58,36.26h0a.54.54,0,0,1,.54.54c0,1.46,0,5.56,0,7.74a4,4,0,0,1-8,.15c-.06-3.11,0-6.22,0-9.33a2.89,2.89,0,0,1,5.78,0c0,2.6,0,5.21,0,7.81a1.81,1.81,0,0,1-3.61,0c0-1.81,0-5.14,0-6.42a.53.53,0,0,1,.54-.53h0a.53.53,0,0,1,.53.53V43c0,.54.26.85.69.87a.69.69,0,0,0,.74-.58,1.55,1.55,0,0,0,0-.31V35.65a1.82,1.82,0,0,0-2.12-1.91,1.79,1.79,0,0,0-1.48,1.49,3.11,3.11,0,0,0,0,.43c0,2.93,0,5.86,0,8.78a2.9,2.9,0,0,0,5.78.43c0-.38,0-.75,0-1.12,0-1.93,0-5.58,0-7A.54.54,0,0,1,41.58,36.26Z"/><circle class="cls-3" cx="11.78" cy="14.47" r="11.78"/><text class="cls-4" transform="translate(3.01 18.57)"><tspan class="cls-5">2.</tspan><tspan x="10.46" y="0">2</tspan></text></svg>