<svg id="Capa_1" data-name="Capa 1" xmlns="http://www.w3.org/2000/svg" viewBox="0 0 521.02 246.97"><defs><style>.cls-1{fill:#0052a7;}.cls-2{fill:#6770f2;}</style></defs><path class="cls-1" d="M483,175.23H16a16,16,0,0,1-16-16V112.94a16,16,0,0,1,16-16H483a16,16,0,0,1,16,16v46.29A16,16,0,0,1,483,175.23ZM16,98.94a14,14,0,0,0-14,14v46.29a14,14,0,0,0,14,14H483a14,14,0,0,0,14-14V112.94a14,14,0,0,0-14-14Z"/><path class="cls-1" d="M43.75,151.83c-2.27,1.52-5.36,2.29-9.28,2.29q-5.62,0-8.78-1.86a8.48,8.48,0,0,1-3.77-4.57,2.08,2.08,0,0,1-.12-.56,1.46,1.46,0,0,1,.34-.93,1.33,1.33,0,0,1,1-.49l4.26-.62h.19a1.5,1.5,0,0,1,1.3.8V146a4,4,0,0,0,1.42,1.79,8.28,8.28,0,0,0,4.2.74,8.15,8.15,0,0,0,4.08-.74,2,2,0,0,0,1.12-1.92,1.91,1.91,0,0,0-.81-1.6A12.35,12.35,0,0,0,35.28,143a37.11,37.11,0,0,1-8.1-2.29,7.89,7.89,0,0,1-3.4-2.72,8.2,8.2,0,0,1,2-10.7Q28.84,125,34.53,125a15,15,0,0,1,8,1.91,9.14,9.14,0,0,1,3.65,4.64,1.31,1.31,0,0,1-.22,1.18,1.64,1.64,0,0,1-1.08.67l-4.27.5h-.12a1.52,1.52,0,0,1-.86-.28,1.21,1.21,0,0,1-.56-.71A2.6,2.6,0,0,0,38,131.43a6.17,6.17,0,0,0-3.47-.74,7.84,7.84,0,0,0-3.52.55A1.85,1.85,0,0,0,30,133a1.49,1.49,0,0,0,.8,1.42,8,8,0,0,0,3,1.06c1.45.28,3.34.74,5.69,1.36a13.86,13.86,0,0,1,4.14,1.67,10.78,10.78,0,0,1,2.54,2.65,8.31,8.31,0,0,1,.93,4.08A7.7,7.7,0,0,1,43.75,151.83Z"/><path class="cls-1" d="M56.6,121.16a1.33,1.33,0,0,1-1,.44h-5.2a1.37,1.37,0,0,1-1-.44,1.33,1.33,0,0,1-.43-1V116.9a1.47,1.47,0,0,1,1.42-1.42h5.2a1.32,1.32,0,0,1,1,.43,1.37,1.37,0,0,1,.44,1v3.27A1.34,1.34,0,0,1,56.6,121.16Zm0,32a1.32,1.32,0,0,1-1,.43h-5.2A1.47,1.47,0,0,1,49,152.2V126.91a1.36,1.36,0,0,1,.43-1,1.4,1.4,0,0,1,1-.43h5.2A1.49,1.49,0,0,1,57,126.91V152.2A1.37,1.37,0,0,1,56.6,153.19Z"/><path class="cls-1" d="M62.35,128.77Q65.88,125,72.18,125q6.12,0,9.28,4.08t3.21,11.62a.6.6,0,0,1-.4.56,2.52,2.52,0,0,1-1,.18h-16a8.41,8.41,0,0,0,1.42,5.13,4.16,4.16,0,0,0,3.71,1.86q3,0,4-2.35a1.25,1.25,0,0,1,.59-.65,1.27,1.27,0,0,1,.83-.15l4.52.37a1.74,1.74,0,0,1,1,.46,1.37,1.37,0,0,1,.43,1,1.15,1.15,0,0,1-.19.62q-3.27,6.36-11.62,6.37-6.3,0-9.77-3.84t-3.4-10.82Q58.89,132.54,62.35,128.77ZM76.82,136a7.38,7.38,0,0,0-1.36-4.14,4.26,4.26,0,0,0-3.4-1.42,4,4,0,0,0-3.4,1.54,7.57,7.57,0,0,0-1.3,4Z"/><path class="cls-1" d="M110.14,153.19a1.34,1.34,0,0,1-1,.43H104a1.36,1.36,0,0,1-1-.43,1.4,1.4,0,0,1-.43-1V137.92q0-6.67-3.58-6.68a3.66,3.66,0,0,0-3,1.92,10,10,0,0,0-1.3,5.44v13.6a1.37,1.37,0,0,1-.44,1,1.32,1.32,0,0,1-1,.43h-5.2a1.47,1.47,0,0,1-1.42-1.42V132.11c0-1.77,0-3-.06-3.53,0-.41-.06-.94-.06-1.6a1.49,1.49,0,0,1,.4-1.06,1.37,1.37,0,0,1,1-.43h4.88a1.41,1.41,0,0,1,1,.37,1.39,1.39,0,0,1,.46.87v.06l.13,1.73.12,2.91-.49-.5h.06l-.43.31a10.82,10.82,0,0,1,3.4-4.76A8.34,8.34,0,0,1,102,125q6.61,0,8,6.3l-.49-.37h.12l-.43.31a11,11,0,0,1,3.46-4.82,9.21,9.21,0,0,1,5.19-1.42,7.69,7.69,0,0,1,6.43,2.84q2.24,2.79,2.23,8.1V152.2a1.37,1.37,0,0,1-.44,1,1.32,1.32,0,0,1-1,.43h-5.2a1.47,1.47,0,0,1-1.42-1.42V137.92q0-6.67-3.59-6.68A3.24,3.24,0,0,0,112,133a9.22,9.22,0,0,0-1.42,5.26V152.2A1.37,1.37,0,0,1,110.14,153.19Z"/><path class="cls-1" d="M152.31,150.22a9.28,9.28,0,0,1-8,3.9,10.6,10.6,0,0,1-5.19-1.3,8.22,8.22,0,0,1-3.46-3.84l.43.31h-.19l.5-.55c.08.49.14,2,.18,4.63v9.46a1.49,1.49,0,0,1-1.42,1.43h-5.19a1.49,1.49,0,0,1-1.42-1.43v-30.6c0-1.52,0-3.28-.13-5.25a1.47,1.47,0,0,1,1.49-1.49h5a1.29,1.29,0,0,1,.87.34,1.64,1.64,0,0,1,.49.84v-.07a7,7,0,0,1,.13,1.18v-.06c0,.66.06,1.56.06,2.72l-.5-.5h.13l-.43.31q2.53-5.31,9.08-5.31a8.9,8.9,0,0,1,7.73,3.83q2.73,3.71,2.72,10.69T152.31,150.22Zm-6.77-17.28a4.14,4.14,0,0,0-3.8-2.13A4.19,4.19,0,0,0,137.9,133a12.23,12.23,0,0,0-1.48,6.62,12.3,12.3,0,0,0,1.42,6.49,4.23,4.23,0,0,0,4,2.17q5,0,5-8.85C146.81,136.54,146.38,134.36,145.54,132.94Z"/><path class="cls-1" d="M157.41,125.92a1.37,1.37,0,0,1,1-.43h4.88a1.41,1.41,0,0,1,1,.37,1.21,1.21,0,0,1,.4.93l.19,1.92.06.8a15.86,15.86,0,0,1,1.05-2,6.38,6.38,0,0,1,2.1-1.85,6.28,6.28,0,0,1,3-.62,6.61,6.61,0,0,1,1.67.18,1.16,1.16,0,0,1,1,1.3v4a1.44,1.44,0,0,1-.56,1.14,1.41,1.41,0,0,1-1.23.34c-.83-.08-1.38-.12-1.67-.12a4,4,0,0,0-3.65,1.92c-1,1.32-1.42,3.33-1.42,6.06V152.2a1.4,1.4,0,0,1-.43,1,1.36,1.36,0,0,1-1,.43h-5.2a1.47,1.47,0,0,1-1.42-1.42V132.35c0-1.81,0-3-.06-3.64s-.06-1-.06-1.73A1.49,1.49,0,0,1,157.41,125.92Z"/><path class="cls-1" d="M177.78,128.77q3.53-3.78,9.83-3.77,6.12,0,9.27,4.08t3.22,11.62a.61.61,0,0,1-.4.56,2.52,2.52,0,0,1-1,.18h-16a8.41,8.41,0,0,0,1.42,5.13,4.15,4.15,0,0,0,3.71,1.86q3,0,4-2.35a1.23,1.23,0,0,1,.58-.65,1.31,1.31,0,0,1,.84-.15l4.51.37a1.74,1.74,0,0,1,1.05.46,1.34,1.34,0,0,1,.44,1,1.24,1.24,0,0,1-.19.62q-3.29,6.36-11.62,6.37-6.31,0-9.77-3.84t-3.4-10.82Q174.32,132.54,177.78,128.77ZM192.25,136a7.45,7.45,0,0,0-1.36-4.14,4.27,4.27,0,0,0-3.4-1.42,4,4,0,0,0-3.4,1.54,7.41,7.41,0,0,0-1.3,4Z"/><path class="cls-1" d="M218.4,128.83a9.36,9.36,0,0,1,8.1-3.83,10.25,10.25,0,0,1,5.25,1.23,8.82,8.82,0,0,1,2.48,2.29l-.07-2.66v-9a1.37,1.37,0,0,1,.44-1,1.33,1.33,0,0,1,1-.43h5.19a1.47,1.47,0,0,1,1.42,1.42v30.29q0,1.11.12,4.95v-.06a1.29,1.29,0,0,1-.37,1.11,1.43,1.43,0,0,1-1,.43h-5.07a1.26,1.26,0,0,1-.86-.31,1.43,1.43,0,0,1-.5-.8c-.08-.66-.12-1.09-.12-1.3l-.06-1q-2.59,3.9-8.35,3.9a8.72,8.72,0,0,1-7.67-3.9q-2.72-3.71-2.72-10.63T218.4,128.83Zm10.51,19.48a4.31,4.31,0,0,0,3.89-2.23q1.48-2.22,1.49-6.68a12.42,12.42,0,0,0-1.42-6.49,4.38,4.38,0,0,0-3.9-2.1,4,4,0,0,0-3.77,2q-1.3,2.1-1.3,6.74Q223.9,148.31,228.91,148.31Z"/><path class="cls-1" d="M251.78,121.16a1.35,1.35,0,0,1-1,.44H245.6a1.37,1.37,0,0,1-1-.44,1.33,1.33,0,0,1-.43-1V116.9a1.47,1.47,0,0,1,1.42-1.42h5.19a1.34,1.34,0,0,1,1,.43,1.37,1.37,0,0,1,.44,1v3.27A1.34,1.34,0,0,1,251.78,121.16Zm0,32a1.34,1.34,0,0,1-1,.43H245.6a1.47,1.47,0,0,1-1.42-1.42V126.91a1.36,1.36,0,0,1,.43-1,1.4,1.4,0,0,1,1-.43h5.19a1.49,1.49,0,0,1,1.43,1.42V152.2A1.37,1.37,0,0,1,251.78,153.19Z"/><path class="cls-1" d="M276,151.83c-2.27,1.52-5.36,2.29-9.27,2.29-3.76,0-6.68-.62-8.78-1.86a8.5,8.5,0,0,1-3.78-4.57,2.08,2.08,0,0,1-.12-.56,1.46,1.46,0,0,1,.34-.93,1.36,1.36,0,0,1,1-.49l4.27-.62h.18a1.49,1.49,0,0,1,1.3.8V146a4,4,0,0,0,1.42,1.79,8.3,8.3,0,0,0,4.21.74,8.21,8.21,0,0,0,4.08-.74,2,2,0,0,0,1.11-1.92,1.91,1.91,0,0,0-.81-1.6,12.23,12.23,0,0,0-3.58-1.24,37.11,37.11,0,0,1-8.1-2.29,7.89,7.89,0,0,1-3.4-2.72,8.19,8.19,0,0,1,2-10.7c2.06-1.52,5-2.28,8.78-2.28a14.91,14.91,0,0,1,8,1.91,9.09,9.09,0,0,1,3.65,4.64,1.3,1.3,0,0,1-.21,1.18,1.64,1.64,0,0,1-1.09.67l-4.26.5h-.13a1.56,1.56,0,0,1-.86-.28,1.21,1.21,0,0,1-.56-.71,2.55,2.55,0,0,0-1.11-1.48,6.13,6.13,0,0,0-3.46-.74,7.89,7.89,0,0,0-3.53.55,1.85,1.85,0,0,0-1,1.73,1.48,1.48,0,0,0,.81,1.42,7.84,7.84,0,0,0,3,1.06c1.44.28,3.34.74,5.68,1.36a14,14,0,0,1,4.15,1.67,10.91,10.91,0,0,1,2.53,2.65,8.31,8.31,0,0,1,.93,4.08A7.67,7.67,0,0,1,276,151.83Z"/><path class="cls-1" d="M305.2,150.22a9.28,9.28,0,0,1-8,3.9,10.6,10.6,0,0,1-5.19-1.3,8.22,8.22,0,0,1-3.46-3.84l.43.31h-.19l.5-.55c.08.49.14,2,.18,4.63v9.46a1.49,1.49,0,0,1-1.42,1.43h-5.19a1.49,1.49,0,0,1-1.42-1.43v-30.6c0-1.52,0-3.28-.13-5.25a1.49,1.49,0,0,1,1.49-1.49h5a1.29,1.29,0,0,1,.87.34,1.64,1.64,0,0,1,.49.84v-.07a7,7,0,0,1,.13,1.18v-.06c0,.66.06,1.56.06,2.72l-.49-.5h.12l-.43.31q2.53-5.31,9.08-5.31a8.9,8.9,0,0,1,7.73,3.83q2.73,3.71,2.72,10.69T305.2,150.22Zm-6.77-17.28a4.14,4.14,0,0,0-3.8-2.13,4.19,4.19,0,0,0-3.84,2.22,12.23,12.23,0,0,0-1.48,6.62,12.3,12.3,0,0,0,1.42,6.49,4.24,4.24,0,0,0,4,2.17q5,0,5-8.85C299.7,136.54,299.27,134.36,298.43,132.94Z"/><path class="cls-1" d="M334.5,150.22q-3.88,3.9-10.51,3.9c-4.32,0-7.77-1.3-10.32-3.9s-3.77-6.12-3.77-10.69,1.25-8,3.77-10.7,6-3.83,10.45-3.83,8,1.23,10.51,3.71,3.65,6.16,3.65,10.82S337,147.67,334.5,150.22Zm-6.05-17.37a5,5,0,0,0-4.21-2q-5.94,0-5.93,8.66c0,3,.51,5.17,1.54,6.61a4.55,4.55,0,0,0,4,2.17,5.11,5.11,0,0,0,4.51-2.17c1-1.44,1.49-3.65,1.49-6.61C329.87,136.39,329.39,134.17,328.45,132.85Z"/><path class="cls-1" d="M365.42,153.19a1.36,1.36,0,0,1-1,.43h-5.2a1.36,1.36,0,0,1-1-.43,1.4,1.4,0,0,1-.43-1V137.92q0-6.67-4.33-6.68a4.3,4.3,0,0,0-3.64,2,8.52,8.52,0,0,0-1.55,5.38v13.6a1.47,1.47,0,0,1-1.42,1.42h-5.2a1.32,1.32,0,0,1-1-.43,1.37,1.37,0,0,1-.44-1V132.11c0-1.77,0-3-.06-3.53,0-.41-.06-.94-.06-1.6a1.49,1.49,0,0,1,.4-1.06,1.37,1.37,0,0,1,1-.43h4.89a1.36,1.36,0,0,1,.95.37,1.4,1.4,0,0,1,.47.87v.06l.12,1.73.12,2.91-.49-.5h.06l-.43.31a10.22,10.22,0,0,1,3.77-4.76,9.67,9.67,0,0,1,5.38-1.48q4.64,0,7.05,2.84c1.6,1.86,2.41,4.56,2.41,8.1V152.2A1.4,1.4,0,0,1,365.42,153.19Z"/><path class="cls-1" d="M375.93,121.16a1.37,1.37,0,0,1-1,.44h-5.2a1.37,1.37,0,0,1-1-.44,1.33,1.33,0,0,1-.43-1V116.9a1.47,1.47,0,0,1,1.42-1.42h5.2a1.36,1.36,0,0,1,1,.43,1.4,1.4,0,0,1,.43,1v3.27A1.36,1.36,0,0,1,375.93,121.16Zm0,32a1.36,1.36,0,0,1-1,.43h-5.2a1.47,1.47,0,0,1-1.42-1.42V126.91a1.36,1.36,0,0,1,.43-1,1.4,1.4,0,0,1,1-.43h5.2a1.47,1.47,0,0,1,1.42,1.42V152.2A1.4,1.4,0,0,1,375.93,153.19Z"/><path class="cls-1" d="M378.34,146.94v-30a1.47,1.47,0,0,1,1.42-1.42H385a1.47,1.47,0,0,1,1.42,1.42v9.4l-.06,2.72c1.81-2.6,4.56-3.94,8.22-4a9.14,9.14,0,0,1,7.86,3.83q2.6,3.76,2.59,10.63t-2.78,10.76a9.32,9.32,0,0,1-8.1,3.9,10.7,10.7,0,0,1-5.25-1.3,7.42,7.42,0,0,1-2.6-2.47l-.06.8a9.11,9.11,0,0,1-.13,1.3,1.57,1.57,0,0,1-.49.83,1.24,1.24,0,0,1-.87.34h-5a1.4,1.4,0,0,1-1.05-.43,1.51,1.51,0,0,1-.44-1.11C378.29,150.26,378.34,148.55,378.34,146.94Zm9.33-.8a4.5,4.5,0,0,0,7.7,0c.84-1.44,1.27-3.67,1.27-6.68s-.44-5.25-1.3-6.61a4,4,0,0,0-3.71-2,4.18,4.18,0,0,0-3.9,2.16c-1,1.49-1.48,3.71-1.48,6.68A12.17,12.17,0,0,0,387.67,146.14Z"/><path class="cls-1" d="M414.44,153.19a1.36,1.36,0,0,1-1,.43h-5.19a1.47,1.47,0,0,1-1.42-1.42V116.9a1.47,1.47,0,0,1,1.42-1.42h5.19a1.47,1.47,0,0,1,1.42,1.42v35.3A1.36,1.36,0,0,1,414.44,153.19Z"/><path class="cls-1" d="M420.19,128.77Q423.72,125,430,125q6.12,0,9.27,4.08t3.22,11.62a.6.6,0,0,1-.4.56,2.52,2.52,0,0,1-1,.18H425.14a8.41,8.41,0,0,0,1.42,5.13,4.15,4.15,0,0,0,3.71,1.86q3,0,4-2.35a1.28,1.28,0,0,1,.58-.65,1.31,1.31,0,0,1,.84-.15l4.51.37a1.74,1.74,0,0,1,1,.46,1.34,1.34,0,0,1,.44,1,1.24,1.24,0,0,1-.19.62q-3.27,6.36-11.62,6.37-6.31,0-9.77-3.84t-3.4-10.82Q416.73,132.54,420.19,128.77ZM434.66,136a7.45,7.45,0,0,0-1.36-4.14,4.27,4.27,0,0,0-3.4-1.42,4,4,0,0,0-3.4,1.54,7.49,7.49,0,0,0-1.3,4Z"/><path class="cls-1" d="M466.31,151.83c-2.27,1.52-5.36,2.29-9.27,2.29q-5.62,0-8.78-1.86a8.48,8.48,0,0,1-3.77-4.57,1.83,1.83,0,0,1-.13-.56,1.52,1.52,0,0,1,.34-.93,1.36,1.36,0,0,1,1-.49l4.27-.62h.18a1.49,1.49,0,0,1,1.3.8V146a4,4,0,0,0,1.42,1.79,8.35,8.35,0,0,0,4.21.74,8.15,8.15,0,0,0,4.08-.74,2,2,0,0,0,1.11-1.92,1.93,1.93,0,0,0-.8-1.6,12.32,12.32,0,0,0-3.59-1.24,37.11,37.11,0,0,1-8.1-2.29,8,8,0,0,1-3.4-2.72,8.22,8.22,0,0,1,2-10.7q3.09-2.28,8.78-2.28a15,15,0,0,1,8,1.91,9.14,9.14,0,0,1,3.65,4.64,1.31,1.31,0,0,1-.22,1.18,1.64,1.64,0,0,1-1.08.67l-4.27.5h-.12a1.57,1.57,0,0,1-.87-.28,1.19,1.19,0,0,1-.55-.71,2.57,2.57,0,0,0-1.12-1.48,6.11,6.11,0,0,0-3.46-.74,7.81,7.81,0,0,0-3.52.55,1.85,1.85,0,0,0-1,1.73,1.47,1.47,0,0,0,.8,1.42,7.84,7.84,0,0,0,3,1.06c1.44.28,3.34.74,5.69,1.36a13.86,13.86,0,0,1,4.14,1.67,11,11,0,0,1,2.54,2.65,8.42,8.42,0,0,1,.92,4.08A7.67,7.67,0,0,1,466.31,151.83Z"/><path class="cls-2" d="M94.31,11.55A12.54,12.54,0,0,1,97.6,18a14.28,14.28,0,0,1-.48,5.72q-1,1.83-2.44,0Q90,20,78.1,21.3q-6.09.6-9.81,1.22a26.54,26.54,0,0,0-5.18,1.21,6.48,6.48,0,0,1,3.78,1.1c.57.33,1.14.69,1.71,1.1l1.7,1.22a2.56,2.56,0,0,1,.86,2.92q-18.78,38-29.25,70.32-1.23,2.33-4.27,2a13.19,13.19,0,0,1-5.85-2.8c-1.71-1.54-2.27-3.13-1.71-4.75q2.45-5.85,4.27-10.55c1.22-3.12,2.27-5.91,3.17-8.34s1.54-4.57,2.19-6.65,1.18-4,1.59-5.78c.65-2.77,1.22-5.81,1.7-9.15a34.11,34.11,0,0,0,0-10A14.59,14.59,0,0,0,38.13,36q-3.66-3.52-9.75-2.92-2.56.36-4.51-2.32a8.22,8.22,0,0,1-1.4-2.43,16,16,0,0,1-.67-2.56A3.47,3.47,0,0,1,24,21.91q6.71-1.95,13.16-4,9-2.44,16.15-4.27t12.62-2.93c3.65-.73,7-1.29,10-1.7a48.9,48.9,0,0,1,8.16-.49Q91.63,8.74,94.31,11.55ZM36.42,30.93a23.78,23.78,0,0,1,9.63,5.6A15.89,15.89,0,0,1,50.93,46l8.16-21.33-14.87,4c-1.14.25-2.33.57-3.59,1S38,30.52,36.42,30.93Z"/><path class="cls-2" d="M112.71,58.23a1.14,1.14,0,0,1,1.16-.55,4,4,0,0,1,1.59.48,5.17,5.17,0,0,1,1.34,1c.36.41.5.73.42,1L115,65.29c-.94,2.12-2,4.39-3.29,6.83s-2.6,4.85-4,7.25a44.64,44.64,0,0,1-4.45,6.28,20.14,20.14,0,0,1-4.63,4.08,4.66,4.66,0,0,1-4.51.43,16.65,16.65,0,0,1-5.91-4.27q-2-2.43-1.53-7.07-2.19,3.3-4.14,6.09a56.54,56.54,0,0,1-5.73,6.71A5.67,5.67,0,0,1,73,93.32a12.63,12.63,0,0,1-4.81-.42A12,12,0,0,1,64,90.77,4.72,4.72,0,0,1,62,87.35a25.49,25.49,0,0,1,.48-5.6q.61-3.42,1.65-7.38t2.44-8c.93-2.68,1.87-5.18,2.8-7.5S71.2,54.63,72,53.05a10.94,10.94,0,0,1,2.07-3.11,3,3,0,0,1,2.56-.67,9.73,9.73,0,0,1,3.23.91A7.69,7.69,0,0,1,82.31,52q.91,1,.42,1.89a58.55,58.55,0,0,0-2.68,5.79q-1.71,4.08-3.41,8.77t-3,9a30.61,30.61,0,0,0-1.46,6.4q.62-.12,2-1.83t3.29-4.57q1.89-2.86,4.08-6.64t4.57-8q2.39-4.21,4.64-8.6t4.2-8.65A2.65,2.65,0,0,1,97.54,44a8.7,8.7,0,0,1,3.72.85,8.42,8.42,0,0,1,3,2.25,2.35,2.35,0,0,1,.67,2.5c-.89,2-1.91,4.49-3,7.62s-2.18,6.38-3.11,9.75-1.69,6.56-2.26,9.57A21.62,21.62,0,0,0,96,83.33a19.42,19.42,0,0,0,4.75-4.63,77.87,77.87,0,0,0,4.69-6.83c1.5-2.43,2.89-4.89,4.15-7.37S111.9,59.93,112.71,58.23Z"/><path class="cls-2" d="M150.49,54.93a6.74,6.74,0,0,1,3.9.86,15.41,15.41,0,0,1,3.17,2,2.59,2.59,0,0,1-.67.55.75.75,0,0,1-.42,0l-.68-.19a2.74,2.74,0,0,0-1.15,0,20.85,20.85,0,0,0-5.37,2.38q-3.53,2-7.31,4.51c-2.52,1.66-4.85,3.29-7,4.87a31.85,31.85,0,0,0-4.2,3.48c.41.65.81,1.26,1.22,1.83s.81,1.17,1.22,1.82a11.63,11.63,0,0,1,1.58,6.58,15,15,0,0,1-2,6.4,23.83,23.83,0,0,1-4.69,5.79,32.46,32.46,0,0,1-6.22,4.51,17.05,17.05,0,0,1-4.93,1.77,20,20,0,0,1-5.36.36,16.94,16.94,0,0,1-4.88-1,7.86,7.86,0,0,1-3.53-2.5,6.52,6.52,0,0,1-1.34-4,10.23,10.23,0,0,1,1.76-5.36,38.87,38.87,0,0,1,7.25-8.66q4.46-4,9.08-7.55c-1.46-2.11-2.94-4.13-4.44-6a16.21,16.21,0,0,1-3.11-6.39,17.9,17.9,0,0,1-.31-6.4,21.46,21.46,0,0,1,1.77-6.16,23.22,23.22,0,0,1,3.47-5.42,24.46,24.46,0,0,1,4.82-4.33,5.49,5.49,0,0,1,3.17-.79,13.09,13.09,0,0,1,3.65.67,20.13,20.13,0,0,1,3.35,1.46,25.61,25.61,0,0,1,2.38,1.47,47.77,47.77,0,0,1,5.55-7.62Q142.57,31.3,144,30c.57-.41,1.35-.3,2.32.31a11.63,11.63,0,0,1,2.74,2.43A12.71,12.71,0,0,1,151,35.8q.68,1.59-.18,2.19a29.23,29.23,0,0,0-4.63,4.27,60.47,60.47,0,0,0-5,6.22,33,33,0,0,0-3.59,6.39q-1.29,3.1-.43,5.06a2.38,2.38,0,0,1-1.65-.12,8.33,8.33,0,0,1-2.07-1.1,8.06,8.06,0,0,1-1.89-1.89,7.55,7.55,0,0,1-1.22-2.5,5.31,5.31,0,0,1,0-2.25c.17-.85.37-1.68.61-2.5a19.7,19.7,0,0,1,.86-2.31c.32-.74.56-1.3.73-1.71q-2.33-.12-4.33,2.5a17.71,17.71,0,0,0-3,6.27,23.54,23.54,0,0,0-.74,7.62,10.92,10.92,0,0,0,2.56,6.64q2.32-1.45,5.43-3.65c2.07-1.46,4.16-2.91,6.27-4.33a62.5,62.5,0,0,1,6.28-3.72A19.21,19.21,0,0,1,150.49,54.93ZM111.13,94.79a8.28,8.28,0,0,0,4.08-1.89,24.86,24.86,0,0,0,4.39-4.21,22.67,22.67,0,0,0,3.17-5q1.16-2.57.42-4.15-3.78,3.54-7.13,7.13A22.91,22.91,0,0,0,111.13,94.79Z"/><path class="cls-2" d="M212,94.18a17.12,17.12,0,0,0,9-1.59,46.42,46.42,0,0,0,9.33-5.6,77.75,77.75,0,0,0,9.08-8.23q4.44-4.7,8.22-9.45t6.77-9.2q3-4.44,4.81-7.73a4,4,0,0,1,2.32-2.2,3,3,0,0,1,2.31.18,2.73,2.73,0,0,1,1.28,1.89,4.28,4.28,0,0,1-.67,3A225.74,225.74,0,0,1,251,75.59,107.27,107.27,0,0,1,236.72,91.5a57.06,57.06,0,0,1-15.12,9.93,30.46,30.46,0,0,1-15.9,2.38,14.56,14.56,0,0,1-8.59-3.48A19,19,0,0,1,192,92.65a35.37,35.37,0,0,1-2.07-10.78A67,67,0,0,1,190.59,69a98.5,98.5,0,0,1,3.9-17.06,132.73,132.73,0,0,1,6.76-17.06,101.41,101.41,0,0,1,9-15.36A62.42,62.42,0,0,1,221.05,7.65,35.54,35.54,0,0,1,232.94.94a19.61,19.61,0,0,1,12.37.13,8.53,8.53,0,0,1,5.54,5.3,26,26,0,0,1,1.65,9.75,63.68,63.68,0,0,1-1.34,12.37,129.34,129.34,0,0,1-3.41,13.28,129.63,129.63,0,0,1-4.64,12.49,91.54,91.54,0,0,1-5,10.06c-.49.73-1.47,1.06-2.93,1a9.68,9.68,0,0,1-4.2-1.22,7.68,7.68,0,0,1-3.05-2.86q-1-1.77.67-3.84a38.63,38.63,0,0,0,3.29-5.73q2.07-4.14,4.27-9.44t4-11.09a70.63,70.63,0,0,0,2.56-10.67,21.93,21.93,0,0,0,0-8A3.89,3.89,0,0,0,239.09,9c-2-.08-4.16,1-6.64,3.35a53.94,53.94,0,0,0-7.62,9.26,115,115,0,0,0-7.61,13.29,166.76,166.76,0,0,0-6.71,15.41,137.85,137.85,0,0,0-4.87,15.6,63.54,63.54,0,0,0-2,13.77,21.49,21.49,0,0,0,1.83,10.06A7.74,7.74,0,0,0,212,94.18Z"/><path class="cls-2" d="M283.7,66.27a2.55,2.55,0,0,0,.54,1.52,2.69,2.69,0,0,0,.86.61,5.5,5.5,0,0,1,.73.37c.2.12.26.38.18.79-.16.65-.87,1-2.13,1.1a14.38,14.38,0,0,1-4.08-.37,18.25,18.25,0,0,1-4.09-1.4q-1.89-.92-2.13-2.13a13.21,13.21,0,0,1-.49-4.45c.08-1.59.08-3.19,0-4.82A83.41,83.41,0,0,0,262,72.79,75.51,75.51,0,0,0,254.69,92a1.9,1.9,0,0,1-2,1.41,8.58,8.58,0,0,1-3.47-.67,10.44,10.44,0,0,1-3.17-2,2.75,2.75,0,0,1-1.1-2.56,131.77,131.77,0,0,1,3.11-13.78q2-7.19,4.69-14.19t5.73-13.35q3-6.33,6-11.33a2.55,2.55,0,0,1,1.71-1.34,4.37,4.37,0,0,1,2.31.12,8.82,8.82,0,0,1,4,2.37,2.85,2.85,0,0,1,.31,3.23q-1.59,3.42-3.42,7.13t-3.77,8.47c1.22-1.7,2.31-3.29,3.29-4.75.89-1.22,1.68-2.4,2.37-3.53s1.12-1.83,1.28-2.08c.73-1.13,1.34-1.76,1.83-1.88a4.43,4.43,0,0,1,2.44.54q3.4,1.35,5.12,1.95a4.34,4.34,0,0,1,2.31,1.59,4.21,4.21,0,0,1,.37,2.8c-.16,1.22-.37,3.09-.61,5.61A45.21,45.21,0,0,0,283.7,66.27Z"/><path class="cls-2" d="M324.52,55.54a1.42,1.42,0,0,1,1.28-.36,3.7,3.7,0,0,1,1.53.61,3,3,0,0,1,1.09,1.28,1.7,1.7,0,0,1-.12,1.64,46.39,46.39,0,0,1-4.45,9.45A62.27,62.27,0,0,1,317.33,77a73.87,73.87,0,0,1-7.68,7.56,51.79,51.79,0,0,1-7.92,5.61,6.51,6.51,0,0,1-3.9.73,14.3,14.3,0,0,1-4.14-1.16,21.53,21.53,0,0,1-3.78-2.13,22.82,22.82,0,0,1-2.8-2.32,9.93,9.93,0,0,1-2.56-6.52,30,30,0,0,1,.91-8.84,57.12,57.12,0,0,1,3.48-9.87,77.86,77.86,0,0,1,5.17-9.62,54.4,54.4,0,0,1,6-7.93,25.73,25.73,0,0,1,6-5,7.87,7.87,0,0,1,3.17-.92,8.13,8.13,0,0,1,3,.49,16.28,16.28,0,0,1,3.23,1.58c1.1.7,2.34,1.45,3.72,2.26q2.93,1.83,2.68,4.63a19.6,19.6,0,0,1-1,4.75A43.55,43.55,0,0,1,318,57.43a35.49,35.49,0,0,1-4.63,6.95,13.57,13.57,0,0,1-6.15,4.33,11.72,11.72,0,0,1-4.27.36,14.75,14.75,0,0,1-4-1.22,24.9,24.9,0,0,0-1.34,3.6,33.46,33.46,0,0,0-1.1,4.81,20.93,20.93,0,0,0-.24,4.33c.08,1.26.57,2,1.46,2.13q1.95.38,5.55-2.07a51.16,51.16,0,0,0,7.49-6.4,89.93,89.93,0,0,0,7.68-9A59,59,0,0,0,324.52,55.54Zm-11-45.82c1-.65,2.32-.32,4,1A10,10,0,0,1,321.11,15q1.09,2.45-.49,3.9a62.62,62.62,0,0,0-9.5,7.31,69.82,69.82,0,0,0-8.78,9.75,2.3,2.3,0,0,1-2.19.73,3.48,3.48,0,0,1-2.44-1.46,1.77,1.77,0,0,1-.24-2.44c.4-.89.91-2,1.52-3.23s1.4-2.7,2.38-4.32,1.84-3.23,2.86-4.82,2-3.1,3.11-4.57C309.61,12.73,311.68,10.69,313.55,9.72Zm-1.22,36.8a17.36,17.36,0,0,0-3.1,3.23q-1.89,2.39-3.66,5.06c-1.18,1.79-2.19,3.46-3.05,5a9.51,9.51,0,0,0-1.28,2.92,4.71,4.71,0,0,0,4.09-1.34,17.9,17.9,0,0,0,3.41-4.32,27.51,27.51,0,0,0,2.44-5.55A27.84,27.84,0,0,0,312.33,46.52Z"/><path class="cls-2" d="M367.42,13.38a4.81,4.81,0,0,1,3.78-.19,11.93,11.93,0,0,1,4,2.08,8.15,8.15,0,0,1,2.5,3,2,2,0,0,1-.49,2.62,44.69,44.69,0,0,0-9.69,11.28,123.3,123.3,0,0,0-8.83,16.51,154.62,154.62,0,0,0-6.89,18.52A101.28,101.28,0,0,0,348,84.67q-.92,7.92.49,13.1c.93,3.46,2.86,5.3,5.79,5.55a4.75,4.75,0,0,1-2.93,1.4,8.6,8.6,0,0,1-4.2-.49,12.13,12.13,0,0,1-4.39-2.86,15.22,15.22,0,0,1-3.47-5.61,28.17,28.17,0,0,1-1.59-8.59,45.59,45.59,0,0,1,1.34-12c0-.33,0-.51-.12-.55s-.2.1-.36.42c-.65,1.14-1.39,2.36-2.2,3.66a39.38,39.38,0,0,1-2.62,3.72c-.93,1.18-1.83,2.21-2.68,3.1a6.52,6.52,0,0,1-2.25,1.71,9.2,9.2,0,0,1-3.48.37,11.81,11.81,0,0,1-3.9-.92,9.22,9.22,0,0,1-3.23-2.25,5.73,5.73,0,0,1-1.46-3.66,30.19,30.19,0,0,1,.67-7,62,62,0,0,1,2.32-8.4,73.12,73.12,0,0,1,3.71-8.78,51.36,51.36,0,0,1,4.82-7.86,28.82,28.82,0,0,1,5.6-5.73,11.75,11.75,0,0,1,6.16-2.5,9.7,9.7,0,0,1,4.57.86q2.13,1,4.08,2a41.49,41.49,0,0,1,1.71-3.84q1.22-2.51,2.8-5.55c1.06-2,2.21-4.14,3.47-6.33s2.52-4.27,3.78-6.22a46.59,46.59,0,0,1,3.72-5.06A13.85,13.85,0,0,1,367.42,13.38ZM344.14,52.25a3.82,3.82,0,0,0,.06-2.62q-.42-1-2.25-.42a9.1,9.1,0,0,0-3.6,2.8,39.64,39.64,0,0,0-3.71,5.18,59.48,59.48,0,0,0-3.35,6.28,52.46,52.46,0,0,0-2.44,6.15,23.38,23.38,0,0,0-1.1,4.94c-.12,1.38.14,2.19.79,2.43.33.17.94-.24,1.83-1.22a34,34,0,0,0,3-3.9q1.63-2.43,3.47-5.42t3.35-5.85c1-1.91,1.89-3.61,2.62-5.12A19.4,19.4,0,0,0,344.14,52.25Z"/><path class="cls-2" d="M410.81,30.8a145.05,145.05,0,0,0-15,30.23,122.74,122.74,0,0,0-4.45,15.11,59.84,59.84,0,0,0-1.53,12.8q0,11.58,8.29,11.58-4.63,4.62-11,1.7-6.71-3-7.8-13.28a32.74,32.74,0,0,1,.19-6.52,71.8,71.8,0,0,1,1.52-8.35,45.73,45.73,0,0,1-7.19,8.65q-3.9,3.78-7.43,4.51-3.54.24-6.95-2.92c-2.2-2.36-3.25-4.8-3.17-7.32q.74-5.47,5.36-17.06a129.26,129.26,0,0,1,9.14-18.16c.9-.89,2.2-1.09,3.9-.61a8.7,8.7,0,0,1,2.5.86,15.09,15.09,0,0,1,2.13,1.34c1.47,1.14,1.87,2.27,1.22,3.41q-13.41,24.38-10.72,28.15,1.83,2.33,4.87-1.34c1-1.22,2-2.66,3.17-4.33a62.6,62.6,0,0,0,3.41-5.66l3.36-6.22c1.09-2,2.09-4.06,3-6.09s1.69-3.76,2.38-5.18,1.24-2.54,1.64-3.35c.81-1.87,1.61-3.68,2.38-5.43s1.6-3.47,2.5-5.18a44.37,44.37,0,0,0-8.78,2.56,47.86,47.86,0,0,0-8,4.27,3.12,3.12,0,0,1-3.05-1.22A8.84,8.84,0,0,1,375,35.86a21.74,21.74,0,0,1-1.28-2.25,12.24,12.24,0,0,1-.86-2.56c-.16-.81-.28-1.59-.36-2.32,0-1.54.57-2.52,1.71-2.92q6.21-1.35,13-2.14t14.5-1.28a77.69,77.69,0,0,1,8.29-11.82c1.13-1.13,2.72-1.22,4.75-.24a10.91,10.91,0,0,1,4.87,4.26,3.76,3.76,0,0,1-.12,5.12c-.41.49-.83,1-1.28,1.47s-.91,1-1.4,1.46a48.32,48.32,0,0,1,6,.79c1.83.37,3.52.75,5.06,1.16a11,11,0,0,1,7.19,11.94c-.24,2.28-1.06,3.74-2.44,4.39q.86-4.26-5.48-7A36.8,36.8,0,0,0,420,31.84,65.56,65.56,0,0,0,410.81,30.8Z"/><path class="cls-2" d="M442.13,71.75a1.28,1.28,0,0,1,1.4.67,3.86,3.86,0,0,1,.42,1.83,4.23,4.23,0,0,1-.42,1.89c-.29.57-.63.85-1,.85a28.85,28.85,0,0,1-5.24.25A22.13,22.13,0,0,1,431.52,76c-.4.81-.93,1.93-1.58,3.35a39.2,39.2,0,0,1-2.38,4.39,32.12,32.12,0,0,1-3.29,4.38,14.75,14.75,0,0,1-4.2,3.36,7.73,7.73,0,0,1-4.94.67,22.57,22.57,0,0,1-6-1.77,20.31,20.31,0,0,1-5.3-3.41,9.11,9.11,0,0,1-2.93-4.51,16.2,16.2,0,0,1-.36-7.19,41,41,0,0,1,1.95-7.62,37.31,37.31,0,0,1,3.23-6.82,22.08,22.08,0,0,1,3.59-4.7,9.38,9.38,0,0,1,1.34-1.09A8.45,8.45,0,0,0,412,54a37.36,37.36,0,0,1-.61-5.18,9.48,9.48,0,0,1,1.22-5.06c.73-1.3,2.26-2.13,4.57-2.5a17,17,0,0,1,7.32.55,17.18,17.18,0,0,1,7,4,12.3,12.3,0,0,1,3.78,7.8,29.16,29.16,0,0,1-.06,8.66c-.45,2.76-1,5.6-1.64,8.53a9,9,0,0,0,3.59,1.09A14.13,14.13,0,0,0,442.13,71.75Zm-31,14a19.37,19.37,0,0,0,7-6.58,57.32,57.32,0,0,0,4-8,19.82,19.82,0,0,1-6.58-7.43A10.78,10.78,0,0,0,414,67q-1,2.69-1.89,6.15a47.29,47.29,0,0,0-1.27,6.95A13.56,13.56,0,0,0,411.17,85.77ZM424,64.2a13.88,13.88,0,0,0,1-4.09,26,26,0,0,0,.06-4.75,28.86,28.86,0,0,0-.61-4.26,10.73,10.73,0,0,0-.91-2.75,9.78,9.78,0,0,0-1.77,6.71A26.18,26.18,0,0,0,424,64.2Z"/><path class="cls-2" d="M482.71,54.93a6.74,6.74,0,0,1,3.9.86,15.69,15.69,0,0,1,3.17,2,2.77,2.77,0,0,1-.67.55.78.78,0,0,1-.43,0L488,58.1a2.78,2.78,0,0,0-1.16,0,21,21,0,0,0-5.36,2.38c-2.36,1.34-4.79,2.84-7.31,4.51s-4.86,3.29-7,4.87a31.85,31.85,0,0,0-4.2,3.48c.4.65.81,1.26,1.22,1.83S465,76.34,465.4,77A11.64,11.64,0,0,1,467,83.57a15,15,0,0,1-2,6.4,23.83,23.83,0,0,1-4.69,5.79,32.77,32.77,0,0,1-6.22,4.51,17.12,17.12,0,0,1-4.94,1.77,20,20,0,0,1-5.36.36,16.94,16.94,0,0,1-4.87-1,7.94,7.94,0,0,1-3.54-2.5,6.58,6.58,0,0,1-1.34-4,10.25,10.25,0,0,1,1.77-5.36A38.87,38.87,0,0,1,443,80.89q4.45-4,9.08-7.55c-1.46-2.11-2.95-4.13-4.45-6a16.49,16.49,0,0,1-3.11-6.39,18.13,18.13,0,0,1-.3-6.4A21.15,21.15,0,0,1,446,48.35a23.22,23.22,0,0,1,3.47-5.42,24.69,24.69,0,0,1,4.81-4.33,5.51,5.51,0,0,1,3.17-.79,13.1,13.1,0,0,1,3.66.67,20.5,20.5,0,0,1,3.35,1.46,25.61,25.61,0,0,1,2.38,1.47,48.46,48.46,0,0,1,5.54-7.62q2.38-2.49,3.84-3.84c.57-.41,1.34-.3,2.32.31a11.63,11.63,0,0,1,2.74,2.43,12.71,12.71,0,0,1,1.95,3.11q.66,1.59-.18,2.19a29.23,29.23,0,0,0-4.63,4.27,60.47,60.47,0,0,0-5,6.22,33.1,33.1,0,0,0-3.6,6.39q-1.28,3.1-.42,5.06a2.38,2.38,0,0,1-1.65-.12,8.33,8.33,0,0,1-2.07-1.1,8.06,8.06,0,0,1-1.89-1.89,7.55,7.55,0,0,1-1.22-2.5,5.31,5.31,0,0,1,0-2.25c.16-.85.37-1.68.61-2.5a19.68,19.68,0,0,1,.85-2.31c.33-.74.57-1.3.74-1.71q-2.32-.12-4.33,2.5a17.72,17.72,0,0,0-3,6.27,23.82,23.82,0,0,0-.73,7.62,10.86,10.86,0,0,0,2.56,6.64q2.31-1.45,5.42-3.65c2.08-1.46,4.17-2.91,6.28-4.33a61.4,61.4,0,0,1,6.28-3.72A19.21,19.21,0,0,1,482.71,54.93ZM443.35,94.79a8.35,8.35,0,0,0,4.08-1.89,25.21,25.21,0,0,0,4.39-4.21,22.25,22.25,0,0,0,3.16-5q1.17-2.57.43-4.15-3.78,3.54-7.13,7.13A22.91,22.91,0,0,0,443.35,94.79Z"/><path class="cls-1" d="M13.3,202.56a5.06,5.06,0,0,1,0,7.38,6.65,6.65,0,0,1-4.41,1.33H5v4.64H3.39v-14.7h5.5A6.61,6.61,0,0,1,13.3,202.56ZM12.19,209a3.32,3.32,0,0,0,1.16-2.7,3.36,3.36,0,0,0-1.16-2.74,5.15,5.15,0,0,0-3.34-.95H5v7.35h3.9A5.1,5.1,0,0,0,12.19,209Z"/><path class="cls-1" d="M17.65,202.14a1.05,1.05,0,0,1-.32-.76,1,1,0,0,1,.32-.73,1.06,1.06,0,0,1,.78-.32,1,1,0,0,1,.77.31,1,1,0,0,1,.32.72,1.06,1.06,0,0,1-.32.78,1.12,1.12,0,0,1-1.55,0Zm0,2.73h1.49v11H17.67Z"/><path class="cls-1" d="M33.4,200.33v15.58H32v-2.18a4.54,4.54,0,0,1-1.78,1.7,5.19,5.19,0,0,1-2.48.59,5.58,5.58,0,0,1-2.82-.72,5.09,5.09,0,0,1-2-2,6.36,6.36,0,0,1,0-5.84,5,5,0,0,1,2-2,5.68,5.68,0,0,1,2.82-.71,5.23,5.23,0,0,1,2.42.56A4.63,4.63,0,0,1,31.91,207v-6.64Zm-3.48,13.83a3.91,3.91,0,0,0,1.47-1.52,5,5,0,0,0,0-4.5,3.84,3.84,0,0,0-1.47-1.52,4.09,4.09,0,0,0-2.09-.54,4.17,4.17,0,0,0-2.11.54,3.84,3.84,0,0,0-1.47,1.52,5,5,0,0,0,0,4.5,3.91,3.91,0,0,0,1.47,1.52,4.26,4.26,0,0,0,2.11.53A4.19,4.19,0,0,0,29.92,214.16Z"/><path class="cls-1" d="M47.17,210.85H37.93a4,4,0,0,0,1.32,2.78,4.39,4.39,0,0,0,3,1.06,4.89,4.89,0,0,0,1.89-.36,4.19,4.19,0,0,0,1.49-1.09l.84,1a4.6,4.6,0,0,1-1.84,1.34,6.55,6.55,0,0,1-5.44-.26,5.23,5.23,0,0,1-2-2,5.74,5.74,0,0,1-.74-2.9,5.93,5.93,0,0,1,.71-2.9,5,5,0,0,1,1.93-2,5.36,5.36,0,0,1,2.76-.72,5.3,5.3,0,0,1,2.75.72,5,5,0,0,1,1.91,2,6,6,0,0,1,.69,2.91Zm-8-3.77a4,4,0,0,0-1.23,2.66h7.83a4,4,0,0,0-1.22-2.66,3.8,3.8,0,0,0-2.7-1A3.75,3.75,0,0,0,39.16,207.08Z"/><path class="cls-1" d="M61.55,215.24a2.9,2.9,0,0,1-1,.58,4.25,4.25,0,0,1-1.29.2A2.93,2.93,0,0,1,56,212.8v-6.67H54v-1.26h2v-2.42h1.49v2.42h3.36v1.26H57.48v6.59a2.07,2.07,0,0,0,.49,1.5,1.88,1.88,0,0,0,1.42.51,2.63,2.63,0,0,0,.89-.14,2.28,2.28,0,0,0,.75-.42Z"/><path class="cls-1" d="M74.21,204.87v11H72.79v-2a4.08,4.08,0,0,1-1.62,1.57,4.89,4.89,0,0,1-2.35.56,4.28,4.28,0,0,1-4.66-4.75v-6.4h1.49v6.25a3.66,3.66,0,0,0,.86,2.65,3.23,3.23,0,0,0,2.46.9,3.62,3.62,0,0,0,2.75-1.06,4.12,4.12,0,0,0,1-3v-5.79Z"/><path class="cls-1" d="M85.54,215.33a5.45,5.45,0,0,1-2.24-2.06,5.68,5.68,0,0,1-.81-3,5.62,5.62,0,0,1,.81-3,5.54,5.54,0,0,1,2.24-2.07,6.92,6.92,0,0,1,3.25-.74,6.22,6.22,0,0,1,3.11.74,4.48,4.48,0,0,1,1.95,2.13l-2.54,1.37a2.78,2.78,0,0,0-2.54-1.56,2.89,2.89,0,0,0-2.13.84,3.54,3.54,0,0,0,0,4.58,2.89,2.89,0,0,0,2.13.84,2.77,2.77,0,0,0,2.54-1.55l2.54,1.38a4.5,4.5,0,0,1-1.95,2.1,6.13,6.13,0,0,1-3.11.76A6.92,6.92,0,0,1,85.54,215.33Z"/><path class="cls-1" d="M100.45,204.87a5.86,5.86,0,0,1,2.3-.42v3l-.74,0a3,3,0,0,0-2.2.79,3.18,3.18,0,0,0-.8,2.36v5.33H95.74v-11.3h3.12v1.49A3.7,3.7,0,0,1,100.45,204.87Z"/><path class="cls-1" d="M115.6,211.19h-8.55a2.69,2.69,0,0,0,1.1,1.66,3.63,3.63,0,0,0,2.14.6,4.18,4.18,0,0,0,1.56-.26,3.62,3.62,0,0,0,1.27-.83l1.74,1.89a5.83,5.83,0,0,1-4.66,1.83,7.35,7.35,0,0,1-3.38-.75,5.47,5.47,0,0,1-2.27-2.06,5.76,5.76,0,0,1-.79-3,5.83,5.83,0,0,1,.78-3,5.57,5.57,0,0,1,2.17-2.08,6.74,6.74,0,0,1,6.08,0,5.33,5.33,0,0,1,2.11,2.05,6.1,6.1,0,0,1,.76,3.09S115.64,210.64,115.6,211.19Zm-7.66-3.64a2.67,2.67,0,0,0-.93,1.73h5.57a2.74,2.74,0,0,0-.93-1.72,3,3,0,0,0-3.71,0Zm2.7-7.41h3.53l-3.8,3h-2.56Z"/><path class="cls-1" d="M129.35,200.33v15.58h-3.13v-1.3a4.3,4.3,0,0,1-3.52,1.47,5.82,5.82,0,0,1-2.89-.72,5.08,5.08,0,0,1-2-2,6.8,6.8,0,0,1,0-6.13,5.11,5.11,0,0,1,2-2,5.81,5.81,0,0,1,2.89-.71,4.31,4.31,0,0,1,3.38,1.36v-5.48Zm-4,12.21a3.58,3.58,0,0,0,0-4.56,2.77,2.77,0,0,0-2.06-.85,2.8,2.8,0,0,0-2.08.85,3.61,3.61,0,0,0,0,4.56,2.76,2.76,0,0,0,2.08.85A2.73,2.73,0,0,0,125.32,212.54Z"/><path class="cls-1" d="M132.54,202.51a1.79,1.79,0,0,1,0-2.6,2.08,2.08,0,0,1,1.47-.52,2.12,2.12,0,0,1,1.47.5,1.62,1.62,0,0,1,.57,1.26,1.75,1.75,0,0,1-.57,1.35A2.05,2.05,0,0,1,134,203,2.09,2.09,0,0,1,132.54,202.51Zm-.16,2.1h3.27v11.3h-3.27Z"/><path class="cls-1" d="M146,215.36a3.35,3.35,0,0,1-1.19.54,5.88,5.88,0,0,1-1.48.18,4.36,4.36,0,0,1-3.11-1,3.92,3.92,0,0,1-1.11-3v-4.64h-1.74v-2.52h1.74v-2.75h3.28v2.75h2.81v2.52h-2.81V212a1.54,1.54,0,0,0,.37,1.11,1.35,1.35,0,0,0,1,.39,2.12,2.12,0,0,0,1.32-.42Z"/><path class="cls-1" d="M149.65,215.33a5.46,5.46,0,0,1-2.22-2.06,5.76,5.76,0,0,1-.8-3,5.7,5.7,0,0,1,.8-3,5.55,5.55,0,0,1,2.22-2.07,7.27,7.27,0,0,1,6.39,0,5.56,5.56,0,0,1,2.2,2.07,5.7,5.7,0,0,1,.8,3,5.76,5.76,0,0,1-.8,3,5.47,5.47,0,0,1-2.2,2.06,7.18,7.18,0,0,1-6.39,0Zm5.27-2.79a3.65,3.65,0,0,0,0-4.56,3,3,0,0,0-4.15,0,3.58,3.58,0,0,0,0,4.56,3,3,0,0,0,4.15,0Z"/><path class="cls-1" d="M170.76,204.87h2.89v2.52h-2.81v8.52h-3.27v-8.52h-1.75v-2.52h1.75v-.51a4.1,4.1,0,0,1,1.14-3.06,4.36,4.36,0,0,1,3.22-1.14,6.32,6.32,0,0,1,1.4.16,3.61,3.61,0,0,1,1.1.45l-.86,2.37a2.28,2.28,0,0,0-1.32-.39c-1,0-1.49.54-1.49,1.63Z"/><path class="cls-1" d="M183.67,205.7a4.75,4.75,0,0,1,1.41,3.76v6.45H182V214.5a3.64,3.64,0,0,1-3.44,1.58,5.42,5.42,0,0,1-2.26-.44,3.4,3.4,0,0,1-1.46-1.22,3.23,3.23,0,0,1-.5-1.76,2.94,2.94,0,0,1,1.18-2.48,6.08,6.08,0,0,1,3.67-.9h2.6a2.09,2.09,0,0,0-.65-1.65,2.82,2.82,0,0,0-2-.58,5.71,5.71,0,0,0-1.78.28,4.82,4.82,0,0,0-1.48.77l-1.17-2.29a7.15,7.15,0,0,1,2.21-1,9.86,9.86,0,0,1,2.66-.35A5.84,5.84,0,0,1,183.67,205.7Zm-2.79,7.79a2.12,2.12,0,0,0,.92-1.15v-1.15h-2.25q-2,0-2,1.32a1.18,1.18,0,0,0,.49,1,2.26,2.26,0,0,0,1.36.36A3,3,0,0,0,180.88,213.49Z"/><path class="cls-1" d="M190.38,215.33a5.54,5.54,0,0,1-2.25-2.06,5.68,5.68,0,0,1-.81-3,5.54,5.54,0,0,1,3.06-5.07,6.9,6.9,0,0,1,3.24-.74,6.26,6.26,0,0,1,3.12.74,4.41,4.41,0,0,1,1.94,2.13l-2.54,1.37a2.77,2.77,0,0,0-2.54-1.56,2.88,2.88,0,0,0-2.12.84,3.54,3.54,0,0,0,0,4.58,2.88,2.88,0,0,0,2.12.84,2.75,2.75,0,0,0,2.54-1.55l2.54,1.38a4.43,4.43,0,0,1-1.94,2.1,6.16,6.16,0,0,1-3.12.76A6.91,6.91,0,0,1,190.38,215.33Z"/><path class="cls-1" d="M200.74,202.51a1.77,1.77,0,0,1,0-2.6,2.08,2.08,0,0,1,1.47-.52,2.12,2.12,0,0,1,1.47.5,1.62,1.62,0,0,1,.57,1.26,1.75,1.75,0,0,1-.57,1.35,2.05,2.05,0,0,1-1.47.54A2.09,2.09,0,0,1,200.74,202.51Zm-.17,2.1h3.28v11.3h-3.28Z"/><path class="cls-1" d="M206.89,200.33h3.28v15.58h-3.28Z"/><path class="cls-1" d="M230.37,204.61l-5.11,12a5.74,5.74,0,0,1-1.92,2.75,4.64,4.64,0,0,1-2.76.8,5.75,5.75,0,0,1-1.74-.27,3.87,3.87,0,0,1-1.41-.76l1.2-2.33a2.75,2.75,0,0,0,.87.53,2.84,2.84,0,0,0,1,.19,1.73,1.73,0,0,0,1.09-.33,2.76,2.76,0,0,0,.75-1.08l.05-.11-4.9-11.38h3.38l3.18,7.67,3.19-7.67Z"/><path class="cls-1" d="M242.37,204.87a5.86,5.86,0,0,1,2.3-.42v3c-.37,0-.61,0-.74,0a3,3,0,0,0-2.2.79,3.14,3.14,0,0,0-.8,2.36v5.33h-3.28v-11.3h3.13v1.49A3.64,3.64,0,0,1,242.37,204.87Z"/><path class="cls-1" d="M255.14,205.7a4.75,4.75,0,0,1,1.41,3.76v6.45h-3.07V214.5a3.64,3.64,0,0,1-3.44,1.58,5.42,5.42,0,0,1-2.26-.44,3.46,3.46,0,0,1-1.46-1.22,3.23,3.23,0,0,1-.5-1.76,3,3,0,0,1,1.19-2.48,6,6,0,0,1,3.66-.9h2.6a2.06,2.06,0,0,0-.65-1.65,2.82,2.82,0,0,0-2-.58,5.65,5.65,0,0,0-1.77.28,4.6,4.6,0,0,0-1.48.77l-1.18-2.29a7.21,7.21,0,0,1,2.22-1,9.79,9.79,0,0,1,2.65-.35A5.84,5.84,0,0,1,255.14,205.7Zm-2.79,7.79a2.12,2.12,0,0,0,.92-1.15v-1.15H251c-1.35,0-2,.44-2,1.32a1.21,1.21,0,0,0,.49,1,2.29,2.29,0,0,0,1.36.36A2.92,2.92,0,0,0,252.35,213.49Zm0-13.35h3.53l-3.8,3h-2.56Z"/><path class="cls-1" d="M269.05,205.17a5.17,5.17,0,0,1,2,2,6.12,6.12,0,0,1,.73,3,6.18,6.18,0,0,1-.73,3.06,5.21,5.21,0,0,1-2,2,5.66,5.66,0,0,1-2.86.73,4.36,4.36,0,0,1-3.4-1.37V220h-3.28V204.61h3.13v1.31a4.34,4.34,0,0,1,3.55-1.47A5.76,5.76,0,0,1,269.05,205.17Zm-1.36,7.37a3.61,3.61,0,0,0,0-4.56,2.95,2.95,0,0,0-4.14,0,3.61,3.61,0,0,0,0,4.56,2.95,2.95,0,0,0,4.14,0Z"/><path class="cls-1" d="M274.17,202.51a1.77,1.77,0,0,1,0-2.6,2,2,0,0,1,1.46-.52,2.08,2.08,0,0,1,1.47.5,1.62,1.62,0,0,1,.57,1.26,1.75,1.75,0,0,1-.57,1.35,2,2,0,0,1-1.47.54A2,2,0,0,1,274.17,202.51Zm-.17,2.1h3.27v11.3H274Z"/><path class="cls-1" d="M291.82,200.33v15.58H288.7v-1.3a4.33,4.33,0,0,1-3.53,1.47,5.82,5.82,0,0,1-2.89-.72,5.08,5.08,0,0,1-2-2,6.8,6.8,0,0,1,0-6.13,5.11,5.11,0,0,1,2-2,5.81,5.81,0,0,1,2.89-.71,4.29,4.29,0,0,1,3.38,1.36v-5.48Zm-4,12.21a3.58,3.58,0,0,0,0-4.56,2.93,2.93,0,0,0-4.13,0,3.58,3.58,0,0,0,0,4.56,2.93,2.93,0,0,0,4.13,0Z"/><path class="cls-1" d="M297,215.33a5.58,5.58,0,0,1-2.22-2.06,5.76,5.76,0,0,1-.79-3,5.52,5.52,0,0,1,3-5.07,6.71,6.71,0,0,1,3.2-.74,6.64,6.64,0,0,1,3.19.74,5.59,5.59,0,0,1,2.21,2.07,5.7,5.7,0,0,1,.8,3,5.76,5.76,0,0,1-.8,3,5.49,5.49,0,0,1-2.21,2.06,6.65,6.65,0,0,1-3.19.75A6.72,6.72,0,0,1,297,215.33Zm5.27-2.79a3.61,3.61,0,0,0,0-4.56,2.76,2.76,0,0,0-2.07-.85,2.8,2.8,0,0,0-2.08.85,3.58,3.58,0,0,0,0,4.56,2.76,2.76,0,0,0,2.08.85A2.72,2.72,0,0,0,302.29,212.54Z"/><path class="cls-1" d="M324.28,210.85h-9.23a3.9,3.9,0,0,0,1.32,2.78,4.37,4.37,0,0,0,3,1.06,4.82,4.82,0,0,0,1.89-.36,4.11,4.11,0,0,0,1.49-1.09l.84,1a4.6,4.6,0,0,1-1.84,1.34,6.52,6.52,0,0,1-5.43-.26,5.19,5.19,0,0,1-2-2,5.74,5.74,0,0,1-.74-2.9,5.93,5.93,0,0,1,.71-2.9,5.06,5.06,0,0,1,1.93-2,5.36,5.36,0,0,1,2.76-.72,5.3,5.3,0,0,1,2.75.72,5,5,0,0,1,1.91,2,6,6,0,0,1,.7,2.91Zm-8-3.77a4,4,0,0,0-1.22,2.66h7.83a4,4,0,0,0-1.23-2.66,4.06,4.06,0,0,0-5.38,0Z"/><path class="cls-1" d="M336.28,206a4.71,4.71,0,0,1,1.23,3.52v6.4H336v-6.26a3.68,3.68,0,0,0-.86-2.62,3.23,3.23,0,0,0-2.46-.9,3.75,3.75,0,0,0-2.82,1.06,4,4,0,0,0-1,2.93v5.79h-1.49v-11h1.43v2a4.11,4.11,0,0,1,1.69-1.56,5.4,5.4,0,0,1,2.51-.56A4.53,4.53,0,0,1,336.28,206Z"/><path class="cls-1" d="M347.45,215.63a5.64,5.64,0,0,1-1.92-1l.67-1.17a5.86,5.86,0,0,0,1.75.89,7,7,0,0,0,2.18.34,4.15,4.15,0,0,0,2.24-.47,1.5,1.5,0,0,0,.72-1.33,1.19,1.19,0,0,0-.4-1,2.64,2.64,0,0,0-1-.52,14,14,0,0,0-1.62-.35,19.59,19.59,0,0,1-2.16-.51,3.2,3.2,0,0,1-1.4-.9,2.46,2.46,0,0,1-.58-1.74,2.75,2.75,0,0,1,1.16-2.27,5.23,5.23,0,0,1,3.21-.88,8.29,8.29,0,0,1,2.14.29,5.62,5.62,0,0,1,1.76.74l-.65,1.2a5.56,5.56,0,0,0-3.25-.95,3.73,3.73,0,0,0-2.15.51,1.52,1.52,0,0,0-.73,1.32,1.32,1.32,0,0,0,.41,1,2.39,2.39,0,0,0,1,.55,15.05,15.05,0,0,0,1.68.37,19.11,19.11,0,0,1,2.12.51,3,3,0,0,1,1.37.86,2.38,2.38,0,0,1,.56,1.68,2.69,2.69,0,0,1-1.2,2.3A5.82,5.82,0,0,1,350,216,8.48,8.48,0,0,1,347.45,215.63Z"/><path class="cls-1" d="M359,215.29a5.31,5.31,0,0,1-2-2,6.13,6.13,0,0,1,0-5.8,5.22,5.22,0,0,1,2-2,6.1,6.1,0,0,1,5.75,0,5.06,5.06,0,0,1,2,2,6.2,6.2,0,0,1,0,5.8,5.15,5.15,0,0,1-2,2,6,6,0,0,1-5.75,0Zm5-1.13a3.82,3.82,0,0,0,1.46-1.52,5.13,5.13,0,0,0,0-4.5,3.75,3.75,0,0,0-1.46-1.52,4.17,4.17,0,0,0-2.11-.54,4.12,4.12,0,0,0-2.11.54,3.71,3.71,0,0,0-1.47,1.52,5,5,0,0,0,0,4.5,3.77,3.77,0,0,0,1.47,1.52,4.21,4.21,0,0,0,2.11.53A4.26,4.26,0,0,0,364,214.16Z"/><path class="cls-1" d="M370.5,200.33H372v15.58H370.5Z"/><path class="cls-1" d="M377.78,215.29a5.29,5.29,0,0,1-2-2,6.05,6.05,0,0,1,0-5.8,5.19,5.19,0,0,1,2-2,6.12,6.12,0,0,1,5.76,0,5.1,5.1,0,0,1,2,2,6.13,6.13,0,0,1,0,5.8,5.19,5.19,0,0,1-2,2,6,6,0,0,1-5.76,0Zm5-1.13a3.82,3.82,0,0,0,1.46-1.52,5.13,5.13,0,0,0,0-4.5,3.75,3.75,0,0,0-1.46-1.52,4.39,4.39,0,0,0-4.22,0,3.84,3.84,0,0,0-1.47,1.52,5,5,0,0,0,0,4.5,3.91,3.91,0,0,0,1.47,1.52,4.47,4.47,0,0,0,4.22,0Z"/><path class="cls-1" d="M404.53,213.14v2.77h-11.1v-2.2l5.67-5.36a6,6,0,0,0,1.21-1.48,2.68,2.68,0,0,0,.32-1.23,1.62,1.62,0,0,0-.6-1.35,2.75,2.75,0,0,0-1.75-.47,4.12,4.12,0,0,0-1.75.36,3.45,3.45,0,0,0-1.3,1.11l-2.48-1.6a5.86,5.86,0,0,1,2.38-2,7.79,7.79,0,0,1,3.46-.73,7.1,7.1,0,0,1,2.87.54,4.39,4.39,0,0,1,1.91,1.51,4,4,0,0,1,.68,2.3,5.2,5.2,0,0,1-.5,2.24,8.77,8.77,0,0,1-2,2.4l-3.38,3.19Z"/><path class="cls-1" d="M408.94,215.26a6,6,0,0,1-2.23-2.61,10.71,10.71,0,0,1,0-8.17,6.14,6.14,0,0,1,2.23-2.62,6.34,6.34,0,0,1,6.51,0,6.16,6.16,0,0,1,2.24,2.62,10.71,10.71,0,0,1,0,8.17,6.07,6.07,0,0,1-2.24,2.61,6.34,6.34,0,0,1-6.51,0Zm5.37-3.13a8.76,8.76,0,0,0,0-7.14,2.49,2.49,0,0,0-4.2,0,8.66,8.66,0,0,0,0,7.14,2.48,2.48,0,0,0,4.2,0Z"/><path class="cls-1" d="M444.63,205.7a5.09,5.09,0,0,1,1.25,3.74v6.47H442.6v-6a3.07,3.07,0,0,0-.56-2,2,2,0,0,0-1.58-.66,2.34,2.34,0,0,0-1.83.75,3.18,3.18,0,0,0-.67,2.21v5.67h-3.28v-6c0-1.78-.71-2.67-2.14-2.67a2.3,2.3,0,0,0-1.8.75,3.18,3.18,0,0,0-.68,2.21v5.67h-3.27v-11.3h3.13v1.31a4.18,4.18,0,0,1,1.54-1.1,5.25,5.25,0,0,1,2-.37,4.79,4.79,0,0,1,2.16.47,3.8,3.8,0,0,1,1.55,1.37,4.74,4.74,0,0,1,1.76-1.36,5.54,5.54,0,0,1,2.32-.48A4.54,4.54,0,0,1,444.63,205.7Z"/><path class="cls-1" d="M449,202.51a1.79,1.79,0,0,1,0-2.6,2.37,2.37,0,0,1,2.94,0,1.62,1.62,0,0,1,.57,1.26,1.75,1.75,0,0,1-.57,1.35,2,2,0,0,1-1.47.54A2.09,2.09,0,0,1,449,202.51Zm-.16,2.1h3.27v11.3h-3.27Z"/><path class="cls-1" d="M465.39,205.71a5,5,0,0,1,1.29,3.73v6.47h-3.27v-6a3,3,0,0,0-.59-2,2.16,2.16,0,0,0-1.7-.66,2.6,2.6,0,0,0-2,.77,3.17,3.17,0,0,0-.74,2.28v5.58h-3.27v-11.3h3.12v1.33a4.42,4.42,0,0,1,1.62-1.11,5.79,5.79,0,0,1,2.12-.38A4.64,4.64,0,0,1,465.39,205.71Z"/><path class="cls-1" d="M481,204.61v11.3h-3.1v-1.34a4.44,4.44,0,0,1-1.56,1.12,5.35,5.35,0,0,1-5.48-.89,5.1,5.1,0,0,1-1.3-3.8v-6.39h3.28v5.9c0,1.82.76,2.73,2.29,2.73a2.47,2.47,0,0,0,1.89-.76,3.26,3.26,0,0,0,.71-2.28v-5.59Z"/><path class="cls-1" d="M491.35,215.36a3.3,3.3,0,0,1-1.18.54,5.94,5.94,0,0,1-1.48.18,4.38,4.38,0,0,1-3.12-1,4,4,0,0,1-1.1-3v-4.64h-1.74v-2.52h1.74v-2.75h3.27v2.75h2.82v2.52h-2.82V212a1.58,1.58,0,0,0,.37,1.11,1.36,1.36,0,0,0,1,.39,2.08,2.08,0,0,0,1.32-.42Z"/><path class="cls-1" d="M495,215.33a5.52,5.52,0,0,1-2.22-2.06,5.76,5.76,0,0,1-.79-3,5.7,5.7,0,0,1,.79-3,5.61,5.61,0,0,1,2.22-2.07,7.27,7.27,0,0,1,6.39,0,5.57,5.57,0,0,1,3,5.07,5.76,5.76,0,0,1-.8,3,5.56,5.56,0,0,1-2.21,2.06,7.18,7.18,0,0,1-6.39,0Zm5.27-2.79a3.61,3.61,0,0,0,0-4.56,2.76,2.76,0,0,0-2.07-.85,2.8,2.8,0,0,0-2.08.85,3.58,3.58,0,0,0,0,4.56,2.76,2.76,0,0,0,2.08.85A2.72,2.72,0,0,0,500.29,212.54Z"/><path class="cls-1" d="M507.65,215.73a7.08,7.08,0,0,1-2.14-.87l1.09-2.35a7,7,0,0,0,1.83.79,7.7,7.7,0,0,0,2.09.3c1.39,0,2.08-.34,2.08-1a.72.72,0,0,0-.56-.69,8.52,8.52,0,0,0-1.75-.36A17.08,17.08,0,0,1,508,211a3.44,3.44,0,0,1-1.57-1,2.74,2.74,0,0,1-.66-2,3.11,3.11,0,0,1,.62-1.9,4,4,0,0,1,1.81-1.29,7.64,7.64,0,0,1,2.8-.46,10.65,10.65,0,0,1,2.38.26,6.65,6.65,0,0,1,2,.72l-1.09,2.33a6.51,6.51,0,0,0-3.25-.84,3.28,3.28,0,0,0-1.58.3.85.85,0,0,0-.52.75.76.76,0,0,0,.57.74,10.24,10.24,0,0,0,1.8.4,19.49,19.49,0,0,1,2.27.49,3.35,3.35,0,0,1,1.53,1,2.67,2.67,0,0,1,.65,1.93,3,3,0,0,1-.63,1.87,4.06,4.06,0,0,1-1.83,1.27,8.28,8.28,0,0,1-2.87.45A11,11,0,0,1,507.65,215.73Z"/><path class="cls-1" d="M520.46,212.56A2,2,0,0,1,521,214a3.44,3.44,0,0,1-.1.84,10.71,10.71,0,0,1-.46,1.26l-1.2,3h-2.08l.92-3.33a1.68,1.68,0,0,1-.82-.69,2.12,2.12,0,0,1,.27-2.56A2,2,0,0,1,519,212,2,2,0,0,1,520.46,212.56Z"/><path class="cls-1" d="M3.47,243.62a5.7,5.7,0,0,1-1.93-1l.68-1.18a5.47,5.47,0,0,0,1.74.89,7,7,0,0,0,2.18.35,4.22,4.22,0,0,0,2.24-.47,1.52,1.52,0,0,0,.72-1.34,1.21,1.21,0,0,0-.39-1,2.77,2.77,0,0,0-1-.53c-.41-.11-1-.23-1.62-.34a17.28,17.28,0,0,1-2.16-.52,3.15,3.15,0,0,1-1.4-.89,2.5,2.5,0,0,1-.58-1.74,2.73,2.73,0,0,1,1.16-2.27,5.17,5.17,0,0,1,3.21-.88,8.28,8.28,0,0,1,2.14.28,5.93,5.93,0,0,1,1.77.75L9.57,235a5.59,5.59,0,0,0-3.26-.94,3.81,3.81,0,0,0-2.15.5,1.57,1.57,0,0,0-.73,1.33,1.3,1.3,0,0,0,.41,1,2.53,2.53,0,0,0,1,.56c.41.12,1,.24,1.68.37a19.43,19.43,0,0,1,2.12.5,3.23,3.23,0,0,1,1.37.86,2.37,2.37,0,0,1,.56,1.68,2.68,2.68,0,0,1-1.2,2.3A5.73,5.73,0,0,1,6,244,8.42,8.42,0,0,1,3.47,243.62Z"/><path class="cls-1" d="M13.32,230.13a1.05,1.05,0,0,1,0-1.49,1.06,1.06,0,0,1,.78-.31,1.09,1.09,0,0,1,.78.3,1,1,0,0,1,.31.73,1,1,0,0,1-.31.77,1.11,1.11,0,0,1-1.56,0Zm0,2.73h1.49v11H13.35Z"/><path class="cls-1" d="M27.93,234a4.69,4.69,0,0,1,1.23,3.51v6.41H27.67v-6.26A3.66,3.66,0,0,0,26.8,235a3.22,3.22,0,0,0-2.45-.9,3.82,3.82,0,0,0-2.83,1.06,4,4,0,0,0-1,2.93v5.8H19v-11h1.43v2a4.27,4.27,0,0,1,1.69-1.57,5.43,5.43,0,0,1,2.51-.55A4.5,4.5,0,0,1,27.93,234Z"/><path class="cls-1" d="M40.9,230a2.17,2.17,0,0,0-.49,1.55v1.3h3.4v1.26H40.45v9.79H39v-9.79H37v-1.26h2V231.5a3.27,3.27,0,0,1,.87-2.4,3.36,3.36,0,0,1,2.47-.88,4.14,4.14,0,0,1,1.22.18,2.76,2.76,0,0,1,1,.51L44,230a2.43,2.43,0,0,0-1.64-.55A1.92,1.92,0,0,0,40.9,230Zm6.59.12a1.06,1.06,0,0,1,.77-1.8,1.09,1.09,0,0,1,.78.3,1,1,0,0,1,.31.73,1,1,0,0,1-.31.77,1.06,1.06,0,0,1-.78.32A1,1,0,0,1,47.49,230.13Zm0,2.73H49v11H47.51Z"/><path class="cls-1" d="M53.15,228.33h1.5v15.58h-1.5Z"/><path class="cls-1" d="M66,233.86a4.18,4.18,0,0,1,1.16,3.2v6.85H65.71v-1.72a3.39,3.39,0,0,1-1.48,1.34,5.19,5.19,0,0,1-2.32.48,4.54,4.54,0,0,1-2.94-.88,3,3,0,0,1-.07-4.6,5,5,0,0,1,3.24-.86h3.51V237a2.82,2.82,0,0,0-.8-2.17,3.28,3.28,0,0,0-2.33-.75,6,6,0,0,0-2,.35,5.3,5.3,0,0,0-1.66.95l-.67-1.11a5.87,5.87,0,0,1,2-1.1,7.81,7.81,0,0,1,2.48-.39A4.66,4.66,0,0,1,66,233.86Zm-1.68,8.4a3.46,3.46,0,0,0,1.35-1.67v-1.81H62.18c-1.89,0-2.83.66-2.83,2a1.8,1.8,0,0,0,.73,1.52,3.36,3.36,0,0,0,2.06.56A4,4,0,0,0,64.3,242.26Z"/><path class="cls-1" d="M71.58,243.62a5.55,5.55,0,0,1-1.92-1l.67-1.18a5.47,5.47,0,0,0,1.74.89,7,7,0,0,0,2.19.35,4.21,4.21,0,0,0,2.23-.47,1.5,1.5,0,0,0,.73-1.34,1.21,1.21,0,0,0-.4-1,2.69,2.69,0,0,0-1-.53,16.24,16.24,0,0,0-1.62-.34,18.22,18.22,0,0,1-2.16-.52,3.15,3.15,0,0,1-1.4-.89,2.5,2.5,0,0,1-.57-1.74,2.73,2.73,0,0,1,1.15-2.27,5.17,5.17,0,0,1,3.21-.88,8.35,8.35,0,0,1,2.15.28,5.86,5.86,0,0,1,1.76.75L77.68,235a5.59,5.59,0,0,0-3.26-.94,3.84,3.84,0,0,0-2.15.5,1.56,1.56,0,0,0-.72,1.33,1.26,1.26,0,0,0,.41,1,2.41,2.41,0,0,0,1,.56,16.4,16.4,0,0,0,1.68.37,20,20,0,0,1,2.12.5,3.19,3.19,0,0,1,1.36.86,2.37,2.37,0,0,1,.57,1.68,2.66,2.66,0,0,1-1.21,2.3,5.71,5.71,0,0,1-3.35.85A8.47,8.47,0,0,1,71.58,243.62Z"/><path class="cls-1" d="M82.42,242.05a1.12,1.12,0,0,1,.32.81,2.76,2.76,0,0,1-.07.54,5.37,5.37,0,0,1-.23.67l-.88,2.9h-1l.71-3a1,1,0,0,1-.55-.39,1.19,1.19,0,0,1,.11-1.49,1.12,1.12,0,0,1,1.59,0Z"/><path class="cls-1" d="M93.06,243.3a5.23,5.23,0,0,1-2-2,5.77,5.77,0,0,1-.73-2.91,5.7,5.7,0,0,1,.73-2.89,5.2,5.2,0,0,1,2-2,6,6,0,0,1,2.93-.71,5.69,5.69,0,0,1,2.55.55,4.29,4.29,0,0,1,1.77,1.63l-1.11.76a3.42,3.42,0,0,0-1.39-1.23,4.12,4.12,0,0,0-1.82-.41,4.26,4.26,0,0,0-2.15.54,3.72,3.72,0,0,0-1.5,1.52,5,5,0,0,0,0,4.5,3.76,3.76,0,0,0,1.5,1.51,4.26,4.26,0,0,0,2.15.54,4.11,4.11,0,0,0,1.82-.4,3.39,3.39,0,0,0,1.39-1.22l1.11.76a4.31,4.31,0,0,1-1.78,1.63A5.7,5.7,0,0,1,96,244,6,6,0,0,1,93.06,243.3Z"/><path class="cls-1" d="M104.68,243.29a5.34,5.34,0,0,1-2-2,6.11,6.11,0,0,1,0-5.79,5.24,5.24,0,0,1,2-2,6.18,6.18,0,0,1,5.75,0,5.09,5.09,0,0,1,2,2,6.18,6.18,0,0,1,0,5.79,5.18,5.18,0,0,1-2,2,6.1,6.1,0,0,1-5.75,0Zm5-1.14a3.69,3.69,0,0,0,1.46-1.52,5.11,5.11,0,0,0,0-4.49,3.69,3.69,0,0,0-1.46-1.52,4.17,4.17,0,0,0-2.11-.54,4.12,4.12,0,0,0-2.11.54,3.65,3.65,0,0,0-1.47,1.52,4.94,4.94,0,0,0,0,4.49,3.65,3.65,0,0,0,1.47,1.52,4.12,4.12,0,0,0,2.11.54A4.17,4.17,0,0,0,109.67,242.15Z"/><path class="cls-1" d="M126.29,228.33v15.58h-1.43v-2.19a4.47,4.47,0,0,1-1.78,1.7,5.08,5.08,0,0,1-2.48.59,5.68,5.68,0,0,1-2.82-.71,5.05,5.05,0,0,1-2-2,6.26,6.26,0,0,1,0-5.83,5,5,0,0,1,2-2,5.67,5.67,0,0,1,2.82-.7,5.22,5.22,0,0,1,2.42.55A4.79,4.79,0,0,1,124.8,235v-6.63Zm-3.48,13.82a3.78,3.78,0,0,0,1.47-1.52,4.94,4.94,0,0,0,0-4.49,3.78,3.78,0,0,0-1.47-1.52,4.09,4.09,0,0,0-2.09-.54,4.14,4.14,0,0,0-2.11.54,3.78,3.78,0,0,0-1.47,1.52,5,5,0,0,0,0,4.49,3.78,3.78,0,0,0,1.47,1.52,4.14,4.14,0,0,0,2.11.54A4.09,4.09,0,0,0,122.81,242.15Z"/><path class="cls-1" d="M140.06,238.85h-9.24a4,4,0,0,0,1.32,2.78,4.39,4.39,0,0,0,3,1.06,4.72,4.72,0,0,0,1.89-.37,4.05,4.05,0,0,0,1.49-1.08l.84,1a4.79,4.79,0,0,1-1.84,1.34,6.65,6.65,0,0,1-5.44-.26,5.26,5.26,0,0,1-2-2,5.71,5.71,0,0,1-.74-2.9,5.89,5.89,0,0,1,.7-2.89,5.11,5.11,0,0,1,1.94-2,5.7,5.7,0,0,1,5.51,0,5.08,5.08,0,0,1,1.91,2,6,6,0,0,1,.69,2.9Zm-8-3.77a4,4,0,0,0-1.23,2.65h7.83a3.92,3.92,0,0,0-1.23-2.65,4,4,0,0,0-5.37,0Z"/><path class="cls-1" d="M153.08,232.86v11h-1.43v-2a4.15,4.15,0,0,1-1.62,1.57,4.85,4.85,0,0,1-2.35.55,4.28,4.28,0,0,1-4.66-4.74v-6.41h1.49v6.26a3.74,3.74,0,0,0,.86,2.65,3.26,3.26,0,0,0,2.46.9,3.64,3.64,0,0,0,2.75-1.06,4.12,4.12,0,0,0,1-3v-5.8Z"/><path class="cls-1" d="M167.33,228.33v15.58h-1.42v-2.19a4.47,4.47,0,0,1-1.78,1.7,5.08,5.08,0,0,1-2.48.59,5.68,5.68,0,0,1-2.82-.71,5.05,5.05,0,0,1-2-2,6.26,6.26,0,0,1,0-5.83,5,5,0,0,1,2-2,5.67,5.67,0,0,1,2.82-.7,5.22,5.22,0,0,1,2.42.55,4.69,4.69,0,0,1,1.77,1.63v-6.63Zm-3.47,13.82a3.78,3.78,0,0,0,1.47-1.52,4.94,4.94,0,0,0,0-4.49,3.78,3.78,0,0,0-1.47-1.52,4.09,4.09,0,0,0-2.09-.54,4.14,4.14,0,0,0-2.11.54,3.78,3.78,0,0,0-1.47,1.52,5,5,0,0,0,0,4.49,3.78,3.78,0,0,0,1.47,1.52,4.14,4.14,0,0,0,2.11.54A4.09,4.09,0,0,0,163.86,242.15Z"/><path class="cls-1" d="M173.13,243.29a5.34,5.34,0,0,1-2-2,6.11,6.11,0,0,1,0-5.79,5.24,5.24,0,0,1,2-2,6.18,6.18,0,0,1,5.75,0,5.15,5.15,0,0,1,2,2,6.18,6.18,0,0,1,0,5.79,5.25,5.25,0,0,1-2,2,6.1,6.1,0,0,1-5.75,0Zm5-1.14a3.69,3.69,0,0,0,1.46-1.52,5.11,5.11,0,0,0,0-4.49,3.69,3.69,0,0,0-1.46-1.52,4.17,4.17,0,0,0-2.11-.54,4.12,4.12,0,0,0-2.11.54,3.65,3.65,0,0,0-1.47,1.52,4.94,4.94,0,0,0,0,4.49,3.65,3.65,0,0,0,1.47,1.52,4.12,4.12,0,0,0,2.11.54A4.17,4.17,0,0,0,178.12,242.15Z"/><path class="cls-1" d="M187.65,233.35a5.28,5.28,0,0,1,2.57-.57v1.45l-.36,0a3.51,3.51,0,0,0-2.73,1.07,4.28,4.28,0,0,0-1,3v5.63h-1.49v-11h1.42V235A3.59,3.59,0,0,1,187.65,233.35Z"/><path class="cls-1" d="M202.42,238.85h-9.24a4,4,0,0,0,1.32,2.78,4.39,4.39,0,0,0,3,1.06,4.72,4.72,0,0,0,1.89-.37,4.05,4.05,0,0,0,1.49-1.08l.84,1a4.79,4.79,0,0,1-1.84,1.34,6.65,6.65,0,0,1-5.44-.26,5.26,5.26,0,0,1-2-2,5.71,5.71,0,0,1-.74-2.9,6,6,0,0,1,.7-2.89,5.11,5.11,0,0,1,1.94-2,5.45,5.45,0,0,1,2.76-.71,5.39,5.39,0,0,1,2.75.71,5.08,5.08,0,0,1,1.91,2,6,6,0,0,1,.69,2.9Zm-8-3.77a4,4,0,0,0-1.23,2.65H201a4,4,0,0,0-1.22-2.65,3.8,3.8,0,0,0-2.7-1A3.75,3.75,0,0,0,194.41,235.08Z"/><path class="cls-1" d="M205.87,243.62a5.74,5.74,0,0,1-1.92-1l.67-1.18a5.64,5.64,0,0,0,1.75.89,7,7,0,0,0,2.18.35,4.25,4.25,0,0,0,2.24-.47,1.52,1.52,0,0,0,.72-1.34,1.18,1.18,0,0,0-.4-1,2.65,2.65,0,0,0-1-.53c-.41-.11-1-.23-1.62-.34a17.28,17.28,0,0,1-2.16-.52,3.09,3.09,0,0,1-1.4-.89,2.46,2.46,0,0,1-.58-1.74,2.73,2.73,0,0,1,1.16-2.27,5.17,5.17,0,0,1,3.21-.88,8.28,8.28,0,0,1,2.14.28,5.75,5.75,0,0,1,1.76.75L212,235a5.56,5.56,0,0,0-3.25-.94,3.81,3.81,0,0,0-2.15.5,1.54,1.54,0,0,0-.73,1.33,1.3,1.3,0,0,0,.41,1,2.47,2.47,0,0,0,1,.56c.41.12,1,.24,1.68.37a19.43,19.43,0,0,1,2.12.5,3.23,3.23,0,0,1,1.37.86,2.42,2.42,0,0,1,.56,1.68,2.68,2.68,0,0,1-1.2,2.3,5.75,5.75,0,0,1-3.35.85A8.48,8.48,0,0,1,205.87,243.62Z"/><path class="cls-1" d="M222.89,243.29a5.31,5.31,0,0,1-2-2,6,6,0,0,1,0-5.79,5.22,5.22,0,0,1,2-2,6.2,6.2,0,0,1,5.76,0,5.13,5.13,0,0,1,2,2,6.11,6.11,0,0,1,0,5.79,5.22,5.22,0,0,1-2,2,6.12,6.12,0,0,1-5.76,0Zm5-1.14a3.69,3.69,0,0,0,1.46-1.52,5.11,5.11,0,0,0,0-4.49,3.69,3.69,0,0,0-1.46-1.52,4.39,4.39,0,0,0-4.22,0,3.78,3.78,0,0,0-1.47,1.52,4.94,4.94,0,0,0,0,4.49,3.78,3.78,0,0,0,1.47,1.52,4.39,4.39,0,0,0,4.22,0Z"/><path class="cls-1" d="M241.57,243.3a5.23,5.23,0,0,1-2-2,5.77,5.77,0,0,1-.73-2.91,5.7,5.7,0,0,1,.73-2.89,5.2,5.2,0,0,1,2-2,6,6,0,0,1,2.93-.71,5.69,5.69,0,0,1,2.55.55,4.29,4.29,0,0,1,1.77,1.63l-1.11.76a3.42,3.42,0,0,0-1.39-1.23,4.12,4.12,0,0,0-1.82-.41,4.26,4.26,0,0,0-2.15.54,3.72,3.72,0,0,0-1.5,1.52,5,5,0,0,0,0,4.5,3.76,3.76,0,0,0,1.5,1.51,4.26,4.26,0,0,0,2.15.54,4.11,4.11,0,0,0,1.82-.4,3.39,3.39,0,0,0,1.39-1.22l1.11.76a4.31,4.31,0,0,1-1.78,1.63,5.7,5.7,0,0,1-2.54.55A6,6,0,0,1,241.57,243.3Z"/><path class="cls-1" d="M253.19,243.29a5.34,5.34,0,0,1-2-2,6.11,6.11,0,0,1,0-5.79,5.24,5.24,0,0,1,2-2,6.18,6.18,0,0,1,5.75,0,5.09,5.09,0,0,1,2,2,6.18,6.18,0,0,1,0,5.79,5.18,5.18,0,0,1-2,2,6.1,6.1,0,0,1-5.75,0Zm5-1.14a3.69,3.69,0,0,0,1.46-1.52,5.11,5.11,0,0,0,0-4.49,3.69,3.69,0,0,0-1.46-1.52,4.17,4.17,0,0,0-2.11-.54,4.12,4.12,0,0,0-2.11.54,3.65,3.65,0,0,0-1.47,1.52,4.94,4.94,0,0,0,0,4.49,3.65,3.65,0,0,0,1.47,1.52,4.12,4.12,0,0,0,2.11.54A4.17,4.17,0,0,0,258.18,242.15Z"/><path class="cls-1" d="M273.22,233.48a5.05,5.05,0,0,1,2,2,6.34,6.34,0,0,1,0,5.83,5.14,5.14,0,0,1-2,2,5.67,5.67,0,0,1-2.81.71,5.09,5.09,0,0,1-2.49-.59,4.45,4.45,0,0,1-1.77-1.7v2.19h-1.43V228.33h1.49V235a4.69,4.69,0,0,1,1.77-1.63,5.24,5.24,0,0,1,2.43-.55A5.66,5.66,0,0,1,273.22,233.48Zm-.82,8.67a3.68,3.68,0,0,0,1.48-1.52,4.94,4.94,0,0,0,0-4.49,3.68,3.68,0,0,0-1.48-1.52,4.37,4.37,0,0,0-4.21,0,3.78,3.78,0,0,0-1.47,1.52,5,5,0,0,0,0,4.49,3.78,3.78,0,0,0,1.47,1.52,4.37,4.37,0,0,0,4.21,0Z"/><path class="cls-1" d="M282,233.35a5.28,5.28,0,0,1,2.57-.57v1.45l-.36,0a3.51,3.51,0,0,0-2.73,1.07,4.24,4.24,0,0,0-1,3v5.63H279v-11h1.43V235A3.54,3.54,0,0,1,282,233.35Z"/><path class="cls-1" d="M288.74,243.29a5.27,5.27,0,0,1-2-2,6.11,6.11,0,0,1,0-5.79,5.18,5.18,0,0,1,2-2,6.18,6.18,0,0,1,5.75,0,5.22,5.22,0,0,1,2,2,6.18,6.18,0,0,1,0,5.79,5.31,5.31,0,0,1-2,2,6.1,6.1,0,0,1-5.75,0Zm5-1.14a3.63,3.63,0,0,0,1.46-1.52,5,5,0,0,0,0-4.49,3.63,3.63,0,0,0-1.46-1.52,4.12,4.12,0,0,0-2.11-.54,4.17,4.17,0,0,0-2.11.54,3.78,3.78,0,0,0-1.47,1.52,5,5,0,0,0,0,4.49,3.78,3.78,0,0,0,1.47,1.52,4.17,4.17,0,0,0,2.11.54A4.12,4.12,0,0,0,293.72,242.15Z"/><path class="cls-1" d="M300.65,243.62a5.55,5.55,0,0,1-1.92-1l.67-1.18a5.64,5.64,0,0,0,1.75.89,6.91,6.91,0,0,0,2.18.35,4.25,4.25,0,0,0,2.24-.47,1.52,1.52,0,0,0,.72-1.34,1.18,1.18,0,0,0-.4-1,2.62,2.62,0,0,0-1-.53,16,16,0,0,0-1.61-.34,18,18,0,0,1-2.17-.52,3.12,3.12,0,0,1-1.39-.89,2.46,2.46,0,0,1-.58-1.74,2.73,2.73,0,0,1,1.16-2.27,5.17,5.17,0,0,1,3.21-.88,8.28,8.28,0,0,1,2.14.28,5.86,5.86,0,0,1,1.76.75l-.65,1.19a5.56,5.56,0,0,0-3.25-.94,3.81,3.81,0,0,0-2.15.5,1.54,1.54,0,0,0-.73,1.33,1.3,1.3,0,0,0,.41,1,2.41,2.41,0,0,0,1,.56c.41.12,1,.24,1.68.37a19.43,19.43,0,0,1,2.12.5,3.23,3.23,0,0,1,1.37.86,2.42,2.42,0,0,1,.56,1.68,2.66,2.66,0,0,1-1.21,2.3,5.69,5.69,0,0,1-3.34.85A8.48,8.48,0,0,1,300.65,243.62Z"/><path class="cls-1" d="M317.67,243.29a5.31,5.31,0,0,1-2-2,6,6,0,0,1,0-5.79,5.22,5.22,0,0,1,2-2,6.18,6.18,0,0,1,5.75,0,5.09,5.09,0,0,1,2,2,6.18,6.18,0,0,1,0,5.79,5.18,5.18,0,0,1-2,2,6.1,6.1,0,0,1-5.75,0Zm5-1.14a3.69,3.69,0,0,0,1.46-1.52,5.11,5.11,0,0,0,0-4.49,3.69,3.69,0,0,0-1.46-1.52,4.39,4.39,0,0,0-4.22,0,3.72,3.72,0,0,0-1.47,1.52,4.94,4.94,0,0,0,0,4.49,3.72,3.72,0,0,0,1.47,1.52,4.39,4.39,0,0,0,4.22,0Z"/><path class="cls-1" d="M330.85,243.3a5.23,5.23,0,0,1-2-2,5.77,5.77,0,0,1-.73-2.91,5.7,5.7,0,0,1,.73-2.89,5.2,5.2,0,0,1,2-2,6,6,0,0,1,2.93-.71,5.69,5.69,0,0,1,2.55.55A4.29,4.29,0,0,1,338.1,235l-1.11.76a3.48,3.48,0,0,0-1.39-1.23,4.15,4.15,0,0,0-1.82-.41,4.33,4.33,0,0,0-2.16.54,3.76,3.76,0,0,0-1.49,1.52,5,5,0,0,0,0,4.5,3.8,3.8,0,0,0,1.49,1.51,4.33,4.33,0,0,0,2.16.54,4.14,4.14,0,0,0,1.82-.4,3.46,3.46,0,0,0,1.39-1.22l1.11.76a4.31,4.31,0,0,1-1.78,1.63,5.73,5.73,0,0,1-2.54.55A6,6,0,0,1,330.85,243.3Z"/><path class="cls-1" d="M351,232.86v11h-1.43v-2a4.19,4.19,0,0,1-1.61,1.57,4.88,4.88,0,0,1-2.35.55,4.27,4.27,0,0,1-4.66-4.74v-6.41h1.49v6.26a3.69,3.69,0,0,0,.86,2.65,3.22,3.22,0,0,0,2.45.9,3.62,3.62,0,0,0,2.75-1.06,4.08,4.08,0,0,0,1-3v-5.8Z"/><path class="cls-1" d="M355.15,228.33h1.49v15.58h-1.49Z"/><path class="cls-1" d="M366.66,243.23a2.7,2.7,0,0,1-1,.58,4.34,4.34,0,0,1-1.29.2,3.25,3.25,0,0,1-2.4-.84,3.2,3.2,0,0,1-.84-2.37v-6.68h-2v-1.26h2v-2.41h1.49v2.41h3.36v1.26h-3.36v6.6a2.11,2.11,0,0,0,.5,1.5,1.87,1.87,0,0,0,1.41.51,2.74,2.74,0,0,0,.9-.15,2,2,0,0,0,.74-.42Z"/><path class="cls-1" d="M370.6,243.29a5.31,5.31,0,0,1-2-2,6,6,0,0,1,0-5.79,5.22,5.22,0,0,1,2-2,6.2,6.2,0,0,1,5.76,0,5.13,5.13,0,0,1,2,2,6.11,6.11,0,0,1,0,5.79,5.22,5.22,0,0,1-2,2,6.12,6.12,0,0,1-5.76,0Zm5-1.14a3.69,3.69,0,0,0,1.46-1.52,5,5,0,0,0,0-4.49,3.69,3.69,0,0,0-1.46-1.52,4.39,4.39,0,0,0-4.22,0,3.78,3.78,0,0,0-1.47,1.52,5,5,0,0,0,0,4.49,3.78,3.78,0,0,0,1.47,1.52,4.39,4.39,0,0,0,4.22,0Z"/><path class="cls-1" d="M382.52,243.62a5.55,5.55,0,0,1-1.92-1l.67-1.18a5.47,5.47,0,0,0,1.74.89,7,7,0,0,0,2.19.35,4.18,4.18,0,0,0,2.23-.47,1.5,1.5,0,0,0,.73-1.34,1.21,1.21,0,0,0-.4-1,2.69,2.69,0,0,0-1-.53,16.24,16.24,0,0,0-1.62-.34,18.22,18.22,0,0,1-2.16-.52,3.12,3.12,0,0,1-1.39-.89,2.46,2.46,0,0,1-.58-1.74,2.73,2.73,0,0,1,1.15-2.27,5.17,5.17,0,0,1,3.21-.88,8.35,8.35,0,0,1,2.15.28,5.86,5.86,0,0,1,1.76.75l-.65,1.19a5.59,5.59,0,0,0-3.26-.94,3.84,3.84,0,0,0-2.15.5,1.56,1.56,0,0,0-.72,1.33,1.26,1.26,0,0,0,.41,1,2.41,2.41,0,0,0,1,.56,16.4,16.4,0,0,0,1.68.37,20,20,0,0,1,2.12.5,3.19,3.19,0,0,1,1.36.86,2.37,2.37,0,0,1,.57,1.68,2.66,2.66,0,0,1-1.21,2.3,5.71,5.71,0,0,1-3.35.85A8.47,8.47,0,0,1,382.52,243.62Z"/><path class="cls-1" d="M391.76,243.68a1.14,1.14,0,0,1-.33-.82,1.09,1.09,0,0,1,.33-.81,1.07,1.07,0,0,1,.79-.33,1.09,1.09,0,0,1,.79.33,1.06,1.06,0,0,1,.34.81,1.11,1.11,0,0,1-.34.82,1.09,1.09,0,0,1-.79.33A1.07,1.07,0,0,1,391.76,243.68Z"/></svg>