<svg id="Capa_1" data-name="Capa 1" xmlns="http://www.w3.org/2000/svg" xmlns:xlink="http://www.w3.org/1999/xlink" viewBox="0 0 14.24 14.24"><defs><style>.cls-1{fill:none;}.cls-2{clip-path:url(#clip-path);}.cls-3{fill:#f2f3fa;}.cls-4{fill:#fff;}</style><clipPath id="clip-path"><rect class="cls-1" x="-1883.03" y="-90.58" width="1280" height="497.32"/></clipPath></defs><g class="cls-2"><g class="cls-2"><circle class="cls-3" cx="-1243.03" cy="-1772.34" r="2136.82"/></g></g><path class="cls-4" d="M7.12,1.28c1.9,0,2.12,0,2.87,0a4.08,4.08,0,0,1,1.33.25,2.11,2.11,0,0,1,.81.53,2.26,2.26,0,0,1,.54.82,4.14,4.14,0,0,1,.24,1.32c0,.75,0,1,0,2.88s0,2.12,0,2.87a4.16,4.16,0,0,1-.24,1.33,2.48,2.48,0,0,1-1.35,1.35,4.16,4.16,0,0,1-1.33.24c-.75,0-1,0-2.87,0s-2.13,0-2.88,0a4.14,4.14,0,0,1-1.32-.24,2.26,2.26,0,0,1-.82-.54,2.11,2.11,0,0,1-.53-.81A4.08,4.08,0,0,1,1.32,10c0-.75,0-1,0-2.87s0-2.13,0-2.88a4.07,4.07,0,0,1,.25-1.32A2.32,2.32,0,0,1,2.92,1.57a4.07,4.07,0,0,1,1.32-.25c.75,0,1,0,2.88,0M7.12,0C5.18,0,4.94,0,4.18,0A5.51,5.51,0,0,0,2.46.37a3.73,3.73,0,0,0-1.27.82A3.73,3.73,0,0,0,.37,2.46,5.51,5.51,0,0,0,0,4.18c0,.76,0,1,0,2.94s0,2.17,0,2.93a5.52,5.52,0,0,0,.33,1.73A3.6,3.6,0,0,0,1.19,13a3.46,3.46,0,0,0,1.27.82,5,5,0,0,0,1.72.33c.76,0,1,.05,2.94.05s2.17,0,2.93-.05a5,5,0,0,0,1.73-.33,3.63,3.63,0,0,0,2.08-2.08,5,5,0,0,0,.33-1.73c0-.76.05-1,.05-2.93s0-2.18-.05-2.94a5,5,0,0,0-.33-1.72A3.46,3.46,0,0,0,13,1.19,3.6,3.6,0,0,0,11.78.37,5.52,5.52,0,0,0,10.05,0c-.76,0-1,0-2.93,0"/><path class="cls-4" d="M7.12,3.46a3.66,3.66,0,1,0,3.65,3.66A3.66,3.66,0,0,0,7.12,3.46m0,6A2.37,2.37,0,1,1,9.49,7.12,2.37,2.37,0,0,1,7.12,9.49"/><path class="cls-4" d="M11.77,3.32a.85.85,0,0,1-.85.85.86.86,0,1,1,.85-.85"/></svg>