<svg id="Capa_1" data-name="Capa 1" xmlns="http://www.w3.org/2000/svg" xmlns:xlink="http://www.w3.org/1999/xlink" viewBox="0 0 20.78 14.64"><defs><style>.cls-1{fill:none;}.cls-2{clip-path:url(#clip-path);}.cls-3{fill:#f2f3fa;}.cls-4{fill:#fff;}</style><clipPath id="clip-path"><rect class="cls-1" x="-1911.61" y="-90.38" width="1280" height="497.32"/></clipPath></defs><g class="cls-2"><g class="cls-2"><circle class="cls-3" cx="-1271.61" cy="-1772.13" r="2136.82"/></g></g><path class="cls-4" d="M20.35,2.29A2.62,2.62,0,0,0,18.51.44C16.89,0,10.39,0,10.39,0S3.89,0,2.27.44A2.62,2.62,0,0,0,.43,2.29a27.61,27.61,0,0,0-.43,5,27.61,27.61,0,0,0,.43,5A2.62,2.62,0,0,0,2.27,14.2c1.62.44,8.12.44,8.12.44s6.5,0,8.12-.44a2.62,2.62,0,0,0,1.84-1.85,27.61,27.61,0,0,0,.43-5A27.61,27.61,0,0,0,20.35,2.29ZM8.26,10.41V4.23L13.7,7.32Z"/></svg>