<svg id="Capa_1" data-name="Capa 1" xmlns="http://www.w3.org/2000/svg" xmlns:xlink="http://www.w3.org/1999/xlink" viewBox="0 0 32.98 45"><defs><style>.cls-1{fill:none;}.cls-2{clip-path:url(#clip-path);}.cls-3{fill:#bfbfbf;}</style><clipPath id="clip-path"><rect class="cls-1" x="-1477.68" y="-907.29" width="1280" height="497.32"/></clipPath></defs><path class="cls-3" d="M0,0V34.15L16.45,45,33,34.15V0ZM29.37,32.2,16.45,40.67,3.61,32.2V3.61H29.37Z"/><path class="cls-3" d="M7.23,25.19v5.07l9.23,6.09,9.29-6.1V25.18l-9.29,6.1Z"/><path class="cls-3" d="M7.23,16.51v5.07l9.23,6.08,9.29-6.1V16.5l-9.29,6.1Z"/><path class="cls-3" d="M16.49,15.29,13.05,17.1l.66-3.83-2.79-2.71L14.77,10l1.72-3.49L18.21,10l3.85.56-2.79,2.71.66,3.83Z"/></svg>