<svg id="Capa_1" data-name="Capa 1" xmlns="http://www.w3.org/2000/svg" viewBox="0 0 150 150"><defs><style>.cls-1{fill:#e1e2fc;}.cls-2{fill:#0052a7;}</style></defs><circle class="cls-1" cx="75" cy="75" r="75"/><path class="cls-2" d="M108.41,104.87H41.59A11.09,11.09,0,0,1,30.51,93.79V57.4A11.09,11.09,0,0,1,41.59,46.32h66.82A11.09,11.09,0,0,1,119.49,57.4V93.79A11.09,11.09,0,0,1,108.41,104.87ZM41.59,50.56a6.85,6.85,0,0,0-6.84,6.84V93.79a6.85,6.85,0,0,0,6.84,6.84h66.82a6.85,6.85,0,0,0,6.84-6.84V57.4a6.85,6.85,0,0,0-6.84-6.84Z"/><path class="cls-2" d="M58.06,66.3A6.92,6.92,0,1,0,65,73.22,6.94,6.94,0,0,0,58.06,66.3Zm0,11.79a4.87,4.87,0,1,1,4.87-4.87A4.88,4.88,0,0,1,58.06,78.09Z"/><path class="cls-2" d="M62.27,81.86s0,0-.06,0l-.18,0-.51-.17-.36-.09-.47-.11-.45-.07-.42,0a6.34,6.34,0,0,0-.76,0H57.28a6.62,6.62,0,0,0-.77,0l-.41,0-.45.07-.47.11-.37.09-.5.17-.18,0s0,0-.06,0a9.37,9.37,0,0,0-4.53,3.7,14,14,0,0,0,1.64,1.23A7.35,7.35,0,0,1,55,83.71l.42-.13.26-.07.39-.09.33,0,.34-.05.57,0h1.78l.57,0,.34.05.33,0,.39.09.26.07.42.13a7.41,7.41,0,0,1,3.85,3.18,13.78,13.78,0,0,0,1.66-1.21A9.46,9.46,0,0,0,62.27,81.86Z"/><path class="cls-2" d="M75.31,75.59a17,17,0,1,0-27.15,13.7,16.68,16.68,0,0,0,2,1.25,17,17,0,0,0,16.11.11,16.45,16.45,0,0,0,2-1.22A17,17,0,0,0,75.31,75.59ZM66,88.12A14.66,14.66,0,0,1,50.41,88a15.19,15.19,0,0,1-1.82-1.37,14.71,14.71,0,1,1,19.22.14A15.18,15.18,0,0,1,66,88.12Z"/><path class="cls-2" d="M107.07,67.47H85.63a1.89,1.89,0,1,1,0-3.77h21.44a1.89,1.89,0,1,1,0,3.77Z"/><path class="cls-2" d="M107.07,77.48H85.63a1.89,1.89,0,1,1,0-3.77h21.44a1.89,1.89,0,1,1,0,3.77Z"/><path class="cls-2" d="M107.07,87.49H85.63a1.89,1.89,0,1,1,0-3.77h21.44a1.89,1.89,0,1,1,0,3.77Z"/></svg>