<svg id="Capa_1" data-name="Capa 1" xmlns="http://www.w3.org/2000/svg" xmlns:xlink="http://www.w3.org/1999/xlink" viewBox="0 0 42.18 45"><defs><style>.cls-1{fill:none;}.cls-2{clip-path:url(#clip-path);}.cls-3{fill:#bfbfbf;}</style><clipPath id="clip-path"><rect class="cls-1" x="-1473.07" y="-811.21" width="1280" height="497.32"/></clipPath></defs><path class="cls-3" d="M40.55,43a6.17,6.17,0,0,0,1.63-4.18,6.81,6.81,0,0,0-.11-1.21,7.49,7.49,0,0,0-.78-2,5.7,5.7,0,0,0-4-2.85A6.32,6.32,0,0,1,37.39,24a1,1,0,0,0,.32-.85,1,1,0,0,0-1-.88H26.87A9.9,9.9,0,0,0,28,20.91a12.07,12.07,0,0,0,2.07-6.5A7.36,7.36,0,0,0,25.2,7.33a10.26,10.26,0,0,0-2.59-.41A8.85,8.85,0,0,0,21,7.08a6.14,6.14,0,0,0-.4-3.74A6.3,6.3,0,0,0,17.85.66C17.3.37,16-.26,15.19.12S14.1,2,14,2.55a6.34,6.34,0,0,0,.45,3.79,4.12,4.12,0,0,0,.37.61,7.2,7.2,0,0,0-6.68,7.46,12,12,0,0,0,2.07,6.5,9.9,9.9,0,0,0,1.13,1.39C8,22.38,1.13,21.37.79,28.47a5.78,5.78,0,0,0,1.64,4.18H1A1,1,0,0,0,.21,33a1,1,0,0,0,.08,1.32,6.33,6.33,0,0,1,0,8.91,1.06,1.06,0,0,0-.32.85A1,1,0,0,0,1,45H35.72a6.89,6.89,0,0,0,4.83-2ZM16.16,2.09a4.66,4.66,0,0,1,2.62,2.13,4.65,4.65,0,0,1,0,3.27,4.73,4.73,0,0,1-2.58-2A4.64,4.64,0,0,1,16.16,2.09ZM7,24.29h7.76a6.15,6.15,0,0,0,0,8.36H7a4.18,4.18,0,0,1,0-8.36ZM27,43H3a8.19,8.19,0,0,0,1.06-3.19H27.51a1,1,0,1,0,0-2H4.07A8.24,8.24,0,0,0,3,34.64H27A4.19,4.19,0,0,1,27,43ZM36,34.64A4.19,4.19,0,0,1,36,43H31.49a6.19,6.19,0,0,0,0-8.37Zm-1.3-10.35a8.27,8.27,0,0,0-1.07,3.18H19.25a1,1,0,0,0,0,2H33.64a8.27,8.27,0,0,0,1.07,3.18H19.25a4.18,4.18,0,0,1,0-8.36Zm-6.64-9.88a10,10,0,0,1-1.72,5.38c-1.08,1.59-2.44,2.51-3.74,2.51a4.15,4.15,0,0,1-2.81-1.36,1,1,0,0,0-.7-.29.94.94,0,0,0-.7.29,4.19,4.19,0,0,1-2.81,1.36c-1.3,0-2.66-.92-3.75-2.51a10,10,0,0,1-1.72-5.38,5.25,5.25,0,0,1,5.47-5.5,5.82,5.82,0,0,1,3,.79,1,1,0,0,0,1,0,5.79,5.79,0,0,1,3-.79A5.24,5.24,0,0,1,28.07,14.41Z"/></svg>