<svg id="Capa_1" data-name="Capa 1" xmlns="http://www.w3.org/2000/svg" xmlns:xlink="http://www.w3.org/1999/xlink" viewBox="0 0 33.47 45"><defs><style>.cls-1{fill:none;}.cls-2{clip-path:url(#clip-path);}.cls-3{fill:#bfbfbf;}</style><clipPath id="clip-path"><rect class="cls-1" x="-1556.37" y="-907.29" width="1280" height="497.32"/></clipPath></defs><path class="cls-3" d="M16.55,22.92A11.46,11.46,0,1,0,5.09,11.46,11.47,11.47,0,0,0,16.55,22.92Zm0-19.53a8.07,8.07,0,1,1-8.06,8.07A8.07,8.07,0,0,1,16.55,3.39Z"/><path class="cls-3" d="M23.53,27.34l-.1-.05-.31-.09-.83-.28-.6-.15-.78-.18c-.25-.05-.5-.08-.75-.11l-.69-.1c-.41,0-.84-.05-1.26-.06h-3c-.43,0-.85,0-1.27.06l-.69.1c-.24,0-.49.06-.74.11s-.52.12-.79.18l-.6.15-.83.28-.3.09-.1.05A15.47,15.47,0,0,0,0,41.76a1.7,1.7,0,0,0,3.4,0,12,12,0,0,1,8-11.35c.23-.09.46-.16.69-.23l.43-.11c.21-.05.43-.11.65-.15l.54-.08.57-.08c.31,0,.62,0,.94,0h3c.31,0,.63,0,.94,0l.57.08.54.08c.22,0,.43.1.65.15l.43.11c.23.07.46.14.69.23a12,12,0,0,1,8,11.35,1.7,1.7,0,0,0,3.4,0A15.47,15.47,0,0,0,23.53,27.34Z"/><path class="cls-3" d="M16.72,28.73A1.83,1.83,0,0,0,15,30.16L12.67,40.61A1.37,1.37,0,0,0,13,41.87l2.73,2.73a1.36,1.36,0,0,0,1.53.28,1.46,1.46,0,0,0,.41-.29l2.72-2.72a1.37,1.37,0,0,0,.37-1.26L18.5,30.16a1.81,1.81,0,0,0-1.78-1.43Zm0,13L15.5,40.46l1.23-5.63L18,40.46Z"/></svg>