<svg id="Capa_1" data-name="Capa 1" xmlns="http://www.w3.org/2000/svg" xmlns:xlink="http://www.w3.org/1999/xlink" viewBox="0 0 297.64 65.88"><defs><style>.cls-1{fill:none;}.cls-2{clip-path:url(#clip-path);}.cls-3{fill:#f1f2f9;}.cls-4{fill:#0052a7;}</style><clipPath id="clip-path"><rect class="cls-1" x="-1919.19" y="-247.14" width="1280" height="497.32"/></clipPath></defs><g class="cls-2"><g class="cls-2"><circle class="cls-3" cx="-1279.19" cy="-1928.9" r="2136.82"/></g></g><path class="cls-4" d="M295.64,44.91c-76.44,27.47-161.53,23-239.58-12.53a360.34,360.34,0,0,1-43-23.22,6.78,6.78,0,1,0-1.66,2.5A363.63,363.63,0,0,0,54.81,35.11C92.12,52.1,130.86,62.17,170,65q11.47.84,22.87.84a305.74,305.74,0,0,0,103.8-18.14,1.5,1.5,0,0,0-1-2.83Z"/></svg>