<svg xmlns="http://www.w3.org/2000/svg" viewBox="0 0 365.2 63.53"><defs><style>.cls-1,.cls-2{fill:#fff;}.cls-2{fill-rule:evenodd;}</style></defs><g id="Capa_2" data-name="Capa 2"><g id="Capa_1-2" data-name="Capa 1"><path class="cls-1" d="M78.52,12.78A1.52,1.52,0,0,1,80,11.32h5.64a1.54,1.54,0,0,1,1.46,1.46V27L102.2,11.7a1.66,1.66,0,0,1,1-.38h5.2a1.91,1.91,0,0,1,1.42.54,1.77,1.77,0,0,1,.54,1.3,1.89,1.89,0,0,1-.57,1.39L97,27.22,111.7,45.59a1.68,1.68,0,0,1,.45,1.14,1.79,1.79,0,0,1-1.84,1.77h-5.89a1.24,1.24,0,0,1-1.08-.57l.07.07L91,32.1l-3.92,3v12a1.52,1.52,0,0,1-1.46,1.45H80a1.4,1.4,0,0,1-1-.44,1.37,1.37,0,0,1-.44-1Z"/><path class="cls-1" d="M117.09,33.18c1.9-1.52,4.71-2.33,8.42-2.41l5.51-.13v-.88a6.35,6.35,0,0,0-.88-3.74,3,3,0,0,0-2.66-1.14,3.37,3.37,0,0,0-2.54.76,3.68,3.68,0,0,0-1,2v-.06a1.28,1.28,0,0,1-.47.85,1.45,1.45,0,0,1-1,.35H117a1.73,1.73,0,0,1-1.17-.66,1.33,1.33,0,0,1-.22-1.24A10.26,10.26,0,0,1,117,23.77a10,10,0,0,1,2.28-2.44q3.11-2.14,8.55-2.15t8.43,2.72c2,1.82,3,4.41,3,7.79V39.76a7.11,7.11,0,0,0,.44,3,1.51,1.51,0,0,0,1.33.63h.44a1.24,1.24,0,0,1,1.17.35,1.59,1.59,0,0,1,.48,1.17v2a1.52,1.52,0,0,1-.79,1.52,7.78,7.78,0,0,1-3,.38l-1.39.06a5.94,5.94,0,0,1-4.37-1.46,5.74,5.74,0,0,1-1.52-3,10.3,10.3,0,0,1-9,4.69,9,9,0,0,1-6.66-2.34,8.84,8.84,0,0,1-2.4-6.53Q114.05,35.52,117.09,33.18Zm6.33,8.93v.06a2.39,2.39,0,0,0,2,.82,5.06,5.06,0,0,0,2.85-.88,6.82,6.82,0,0,0,2-2.35,8.62,8.62,0,0,0,.69-3.23v-.88l-3.23.06a9.53,9.53,0,0,0-3.35.51,2.68,2.68,0,0,0-1.33,1.14,4.38,4.38,0,0,0-.51,2.21A3.34,3.34,0,0,0,123.42,42.11Z"/><path class="cls-1" d="M169.53,45a9.5,9.5,0,0,1-8.23,4A10.74,10.74,0,0,1,156,47.68a8.41,8.41,0,0,1-3.55-3.93l.44.32h-.19l.51-.57c.08.51.15,2.09.19,4.75v9.69a1.52,1.52,0,0,1-1.46,1.46H146.6a1.54,1.54,0,0,1-1.46-1.46V26.59c0-1.56,0-3.36-.12-5.39a1.52,1.52,0,0,1,1.52-1.52h5.13a1.3,1.3,0,0,1,.89.35,1.71,1.71,0,0,1,.5.86v-.07a7.24,7.24,0,0,1,.13,1.21V22q.06,1,.06,2.79l-.5-.5h.12l-.44.31q2.59-5.44,9.31-5.45A9.14,9.14,0,0,1,169.66,23q2.78,3.81,2.78,11T169.53,45Zm-6.94-17.7a4.23,4.23,0,0,0-3.89-2.19,4.29,4.29,0,0,0-3.93,2.28,12.52,12.52,0,0,0-1.52,6.78,12.64,12.64,0,0,0,1.46,6.65,4.31,4.31,0,0,0,4,2.22q5.13,0,5.13-9.06Q163.89,29.5,162.59,27.32Z"/><path class="cls-1" d="M182.13,15.25a1.36,1.36,0,0,1-1,.44H175.8a1.52,1.52,0,0,1-1.46-1.45V10.88a1.54,1.54,0,0,1,1.46-1.46h5.32a1.54,1.54,0,0,1,1.46,1.46v3.36A1.37,1.37,0,0,1,182.13,15.25Zm0,32.81a1.4,1.4,0,0,1-1,.44H175.8a1.52,1.52,0,0,1-1.46-1.45V21.14a1.54,1.54,0,0,1,1.46-1.46h5.32a1.54,1.54,0,0,1,1.46,1.46V47.05A1.39,1.39,0,0,1,182.13,48.06Z"/><path class="cls-1" d="M184.48,21.14a1.52,1.52,0,0,1,1.45-1.46h2.41l.25-8.74a.74.74,0,0,1,.41-.63,1.61,1.61,0,0,1,.86-.25h4.81a1.44,1.44,0,0,1,1,.44,1.41,1.41,0,0,1,.44,1v8.17h3.8a1.54,1.54,0,0,1,1.46,1.46v3a1.54,1.54,0,0,1-1.46,1.46h-3.8V39.51a4.07,4.07,0,0,0,.7,2.66,2.3,2.3,0,0,0,2,.82l1.08-.12a1.52,1.52,0,0,1,1.29.31,1.49,1.49,0,0,1,.54,1.21v2.53a1.55,1.55,0,0,1-.22.82,1.1,1.1,0,0,1-.6.51l-.06.06a21.75,21.75,0,0,1-5.7.64,7.41,7.41,0,0,1-5.26-1.84A7.93,7.93,0,0,1,188,41.47V25.58h-2.09a1.52,1.52,0,0,1-1.45-1.46Z"/><path class="cls-1" d="M206,33.18c1.91-1.52,4.71-2.33,8.43-2.41l5.51-.13v-.88a6.34,6.34,0,0,0-.89-3.74,3,3,0,0,0-2.66-1.14,3.34,3.34,0,0,0-2.53.76,3.6,3.6,0,0,0-.95,2v-.06a1.26,1.26,0,0,1-.48.85,1.42,1.42,0,0,1-1,.35h-5.57a1.73,1.73,0,0,1-1.17-.66,1.36,1.36,0,0,1-.23-1.24,10.54,10.54,0,0,1,1.4-3.07,10,10,0,0,1,2.28-2.44q3.1-2.14,8.55-2.15t8.42,2.72c2,1.82,3,4.41,3,7.79V39.76a7.08,7.08,0,0,0,.45,3,1.5,1.5,0,0,0,1.33.63h.44a1.25,1.25,0,0,1,1.17.35,1.59,1.59,0,0,1,.48,1.17v2a1.52,1.52,0,0,1-.8,1.52,7.72,7.72,0,0,1-2.94.38l-1.39.06a5.93,5.93,0,0,1-4.37-1.46,5.74,5.74,0,0,1-1.52-3,10.33,10.33,0,0,1-9,4.69,9,9,0,0,1-6.65-2.34A8.85,8.85,0,0,1,203,40.14C203,37.06,204,34.74,206,33.18Zm6.34,8.93v.06a2.39,2.39,0,0,0,2,.82,5,5,0,0,0,2.84-.88,6.72,6.72,0,0,0,2-2.35,8.45,8.45,0,0,0,.7-3.23v-.88l-3.23.06a9.64,9.64,0,0,0-3.36.51,2.77,2.77,0,0,0-1.33,1.14,4.38,4.38,0,0,0-.51,2.21A3.34,3.34,0,0,0,212.37,42.11Z"/><path class="cls-1" d="M241.76,48.06a1.44,1.44,0,0,1-1,.44h-5.32a1.4,1.4,0,0,1-1-.44,1.37,1.37,0,0,1-.44-1V10.88a1.52,1.52,0,0,1,1.45-1.46h5.32a1.52,1.52,0,0,1,1.46,1.46V47.05A1.41,1.41,0,0,1,241.76,48.06Z"/><path class="cls-1" d="M245.37,12.78a1.52,1.52,0,0,1,1.45-1.46H262.4q6.84,0,10.39,2.35a8.43,8.43,0,0,1,3.55,7.22,8.33,8.33,0,0,1-1.84,5.51,8.8,8.8,0,0,1-3.42,2.47A10.07,10.07,0,0,1,276,31.34a8.86,8.86,0,0,1,2.41,6.33,9.12,9.12,0,0,1-3.87,8q-3.8,2.85-10.64,2.85h-17.1a1.4,1.4,0,0,1-1-.44,1.37,1.37,0,0,1-.44-1Zm16.72,13.11a7.38,7.38,0,0,0,4.37-1A3.42,3.42,0,0,0,267.72,22a3.29,3.29,0,0,0-1.33-3A8.1,8.1,0,0,0,262,18h-8.1v7.92Zm1.2,16q3.48,0,5.07-1.2a4.22,4.22,0,0,0,1.45-3.55q0-4.56-6.77-4.56h-9.12v9.31Z"/><path class="cls-1" d="M283.37,33.18c1.9-1.52,4.7-2.33,8.42-2.41l5.51-.13v-.88a6.34,6.34,0,0,0-.89-3.74,3,3,0,0,0-2.66-1.14,3.36,3.36,0,0,0-2.53.76,3.6,3.6,0,0,0-1,2v-.06a1.28,1.28,0,0,1-.47.85,1.46,1.46,0,0,1-1,.35h-5.57a1.73,1.73,0,0,1-1.17-.66,1.33,1.33,0,0,1-.22-1.24,10.26,10.26,0,0,1,1.39-3.07,10,10,0,0,1,2.28-2.44q3.11-2.14,8.55-2.15t8.42,2.72c2,1.82,3,4.41,3,7.79V39.76a7.08,7.08,0,0,0,.45,3,1.51,1.51,0,0,0,1.33.63h.44a1.24,1.24,0,0,1,1.17.35,1.59,1.59,0,0,1,.48,1.17v2a1.53,1.53,0,0,1-.79,1.52,7.78,7.78,0,0,1-2.95.38l-1.39.06a5.93,5.93,0,0,1-4.37-1.46,5.74,5.74,0,0,1-1.52-3,10.32,10.32,0,0,1-9,4.69,9,9,0,0,1-6.65-2.34,8.84,8.84,0,0,1-2.4-6.53Q280.33,35.52,283.37,33.18Zm6.33,8.93v.06a2.39,2.39,0,0,0,2,.82,5.06,5.06,0,0,0,2.85-.88,6.81,6.81,0,0,0,2-2.35,8.45,8.45,0,0,0,.7-3.23v-.88l-3.23.06a9.64,9.64,0,0,0-3.36.51,2.77,2.77,0,0,0-1.33,1.14,4.49,4.49,0,0,0-.5,2.21A3.34,3.34,0,0,0,289.7,42.11Z"/><path class="cls-1" d="M337.2,48.06a1.4,1.4,0,0,1-1,.44h-5.32a1.52,1.52,0,0,1-1.46-1.45V32.42c0-4.57-1.48-6.84-4.43-6.84a4.42,4.42,0,0,0-3.74,2,8.76,8.76,0,0,0-1.58,5.51V47.05a1.52,1.52,0,0,1-1.46,1.45h-5.32a1.52,1.52,0,0,1-1.46-1.45V26.46c0-1.81,0-3-.06-3.61q-.06-.63-.06-1.65a1.48,1.48,0,0,1,.41-1.07,1.34,1.34,0,0,1,1-.45h5a1.42,1.42,0,0,1,1,.38,1.45,1.45,0,0,1,.47.89V21l.13,1.77.13,3-.51-.51H319l-.44.32a10.41,10.41,0,0,1,3.87-4.88,9.81,9.81,0,0,1,5.5-1.52q4.76,0,7.23,2.91c1.64,1.9,2.47,4.67,2.47,8.3V47.05A1.39,1.39,0,0,1,337.2,48.06Z"/><path class="cls-1" d="M339.54,10.88A1.54,1.54,0,0,1,341,9.42h5.32a1.54,1.54,0,0,1,1.46,1.46V30.39l8.74-10.26-.06.06a1.16,1.16,0,0,1,1.07-.51H362a1.91,1.91,0,0,1,1.36.51,1.67,1.67,0,0,1,.54,1.27,2,2,0,0,1-.51,1.26l-7.54,8.43,9.12,14.76a1.86,1.86,0,0,1,.26,1,1.59,1.59,0,0,1-.48,1.17,1.7,1.7,0,0,1-1.23.47h-5.2a1.35,1.35,0,0,1-.69-.22,1.24,1.24,0,0,1-.51-.47l-6.84-11.66-2.47,1.71v9.19a1.52,1.52,0,0,1-1.46,1.45H341a1.52,1.52,0,0,1-1.46-1.45Z"/><path class="cls-2" d="M21.44,10.46A5.86,5.86,0,0,0,17,8.32H16a5.9,5.9,0,0,0-5,5.81V28.44L27.07,17.32ZM49.86,17,11,33.39V48.52a5.9,5.9,0,0,0,5.88,5.88H17a6.09,6.09,0,0,0,4.88-2.3c9.7-12.21,18.25-23,28-35.14"/><path class="cls-2" d="M11,30.85l41-16.6C55.17,13,47.2,5.57,42.16,9.07l-13.82,9.6-.1.07L11,30.59Z"/><path class="cls-1" d="M48.29,1h-33A14.27,14.27,0,0,0,1,15.24V48.3A14.25,14.25,0,0,0,15.24,62.51H48.29A14.25,14.25,0,0,0,62.51,48.3V15.24A14.27,14.27,0,0,0,48.29,1m-33-1H48.29A15.28,15.28,0,0,1,63.53,15.24V48.3A15.26,15.26,0,0,1,48.29,63.53h-33A15.28,15.28,0,0,1,0,48.3V15.24A15.3,15.3,0,0,1,15.24,0"/><path class="cls-2" d="M44.84,39.81a7.64,7.64,0,1,1-7.64,7.64,7.65,7.65,0,0,1,7.64-7.64"/></g></g></svg>