<svg xmlns="http://www.w3.org/2000/svg" viewBox="0 0 63.53 63.53"><defs><style>.cls-1,.cls-2{fill:#fff;}.cls-1{fill-rule:evenodd;}</style></defs><g id="Capa_2" data-name="Capa 2"><g id="Capa_1-2" data-name="Capa 1"><path class="cls-1" d="M21.44,10.46A5.86,5.86,0,0,0,17,8.32H16a5.9,5.9,0,0,0-5,5.81V28.44L27.07,17.32ZM49.86,17,11,33.39V48.52a5.9,5.9,0,0,0,5.88,5.88H17a6.09,6.09,0,0,0,4.88-2.3c9.7-12.21,18.25-23,28-35.14"/><path class="cls-1" d="M11,30.85l41-16.6C55.17,13,47.2,5.57,42.16,9.07l-13.82,9.6-.1.07L11,30.59Z"/><path class="cls-2" d="M48.29,1h-33A14.27,14.27,0,0,0,1,15.24V48.3A14.25,14.25,0,0,0,15.24,62.51H48.29A14.25,14.25,0,0,0,62.51,48.3V15.24A14.27,14.27,0,0,0,48.29,1m-33-1H48.29A15.28,15.28,0,0,1,63.53,15.24V48.3A15.26,15.26,0,0,1,48.29,63.53h-33A15.28,15.28,0,0,1,0,48.3V15.24A15.3,15.3,0,0,1,15.24,0"/><path class="cls-1" d="M44.84,39.81a7.64,7.64,0,1,1-7.64,7.64,7.65,7.65,0,0,1,7.64-7.64"/></g></g></svg>