<svg id="Capa_1" data-name="Capa 1" xmlns="http://www.w3.org/2000/svg" xmlns:xlink="http://www.w3.org/1999/xlink" viewBox="0 0 39.73 45"><defs><style>.cls-1{fill:none;}.cls-2{clip-path:url(#clip-path);}.cls-3{fill:#bfbfbf;}</style><clipPath id="clip-path"><rect class="cls-1" x="-1553.24" y="-811.21" width="1280" height="497.32"/></clipPath></defs><path class="cls-3" d="M25.29,30.53a1.77,1.77,0,0,1-2.27,1,12.33,12.33,0,0,0-4.39-.8H16A12.49,12.49,0,0,0,3.52,43.24a1.76,1.76,0,1,1-3.52,0,16,16,0,0,1,16-16h2.63a16.07,16.07,0,0,1,5.63,1A1.77,1.77,0,0,1,25.29,30.53ZM29,11.87A11.87,11.87,0,1,1,17.14,0,11.87,11.87,0,0,1,29,11.87Zm-3.51,0a8.35,8.35,0,1,0-8.35,8.34A8.36,8.36,0,0,0,25.49,11.87Zm14.24,25.6a5.24,5.24,0,0,0-5.45-5c-1.27,0-2.2-.62-2.2-1.46a1.46,1.46,0,0,1,1.45-1.47,9.14,9.14,0,0,1,3.53.74A1.76,1.76,0,1,0,38.34,27a15.06,15.06,0,0,0-2.3-.7V25a1.76,1.76,0,1,0-3.52,0v1.19a5,5,0,0,0-4,4.88c0,2.83,2.46,5,5.72,5,1,0,1.93.67,1.93,1.46a1.55,1.55,0,0,1-1.55,1.47,12.17,12.17,0,0,1-3.86-.88,1.76,1.76,0,1,0-1.3,3.27,17.48,17.48,0,0,0,3,.88v1a1.76,1.76,0,1,0,3.52,0v-1A5.22,5.22,0,0,0,38.2,41a4.92,4.92,0,0,0,1.53-3.55Z"/></svg>