<svg id="Capa_1" data-name="Capa 1" xmlns="http://www.w3.org/2000/svg" viewBox="0 0 150 150"><defs><style>.cls-1{fill:#e1e2fc;}.cls-2{fill:#0052a7;}</style></defs><circle class="cls-1" cx="75" cy="75" r="75"/><path class="cls-2" d="M73.05,72.38A2.1,2.1,0,0,0,71,70.29H54.1a2.09,2.09,0,1,0,0,4.18H71a2.1,2.1,0,0,0,2.09-2.09Z"/><path class="cls-2" d="M81.23,63.76a2.1,2.1,0,0,0-2.09-2.09h-25a2.09,2.09,0,0,0,0,4.18h25a2.1,2.1,0,0,0,2.09-2.09Z"/><path class="cls-2" d="M81.23,55.14a2.09,2.09,0,0,0-2.09-2.09h-25a2.09,2.09,0,0,0,0,4.18h25a2.1,2.1,0,0,0,2.09-2.09Z"/><path class="cls-2" d="M62.47,78.91H54.09a2.09,2.09,0,0,0,0,4.18h8.38a2.09,2.09,0,0,0,0-4.18Z"/><path class="cls-2" d="M62.47,87.53H54.09a2.09,2.09,0,0,0,0,4.18h8.38a2.09,2.09,0,1,0,0-4.18Z"/><path class="cls-2" d="M89.61,73.15V68.73h14.77a2.08,2.08,0,0,0,2.09-2.09V49.86A10.53,10.53,0,0,0,96,39.34H54A10.46,10.46,0,0,0,43.52,49.78v58.75a2.09,2.09,0,0,0,3.6,1.45l2.67-2.79L52.62,110a2.08,2.08,0,0,0,3,0l2.68-2.67L61,110a2.08,2.08,0,0,0,2.94,0l2.75-2.72L69.39,110a2.08,2.08,0,0,0,2.94,0l3.55-3.53A18.8,18.8,0,1,0,89.61,73.15Zm12.68-23.29V64.55H89.61V49.86a6.34,6.34,0,0,1,12.68,0ZM70.86,105.59l-2.75-2.72a2.08,2.08,0,0,0-2.94,0l-2.75,2.72-2.71-2.69a2.1,2.1,0,0,0-3,0l-2.67,2.67-2.85-2.86a2.09,2.09,0,0,0-3,0l-.55.57V49.78A6.27,6.27,0,0,1,54,43.52H87.56a10.5,10.5,0,0,0-2.13,6.34V73.18a18.8,18.8,0,0,0-12.49,30.35Zm16.81.89A14.63,14.63,0,1,1,102.3,91.86,14.64,14.64,0,0,1,87.67,106.48Z"/><path class="cls-2" d="M91.16,90.63c-1.75-1.36-4.06-1.63-4.5-2.43a.71.71,0,0,1,.32-.8,1.94,1.94,0,0,1,1.86.14,2.09,2.09,0,1,0,2.84-3.08,5.39,5.39,0,0,0-2-1.12,2.09,2.09,0,0,0-4.18,0v.1A4.86,4.86,0,0,0,83,90.22a6.8,6.8,0,0,0,3.89,2.87c.86.35,2.31.86,2.21,1.79A1.5,1.5,0,0,1,88.25,96a3.61,3.61,0,0,1-3-.44A2.09,2.09,0,1,0,83,99a8,8,0,0,0,2.49,1v0a2.09,2.09,0,0,0,4.18,0v-.2a5.32,5.32,0,0,0,1.48-9.27Z"/></svg>