<svg id="Capa_1" data-name="Capa 1" xmlns="http://www.w3.org/2000/svg" xmlns:xlink="http://www.w3.org/1999/xlink" viewBox="0 0 232.77 189.87"><defs><style>.cls-1{fill:none;}.cls-2{clip-path:url(#clip-path);}.cls-3{fill:#e1e2fc;}.cls-4{fill:url(#Degradado_sin_nombre_2);}</style><clipPath id="clip-path"><rect class="cls-1" x="-2258.99" y="-502.67" width="1280" height="497.32"/></clipPath><linearGradient id="Degradado_sin_nombre_2" y1="94.94" x2="91.68" y2="94.94" gradientUnits="userSpaceOnUse"><stop offset="0" stop-color="#6770f2"/><stop offset="1" stop-color="#0052a7"/></linearGradient></defs><circle class="cls-3" cx="137.84" cy="94.94" r="94.94"/><path class="cls-4" d="M27.44,107.21a.86.86,0,0,0,.76,1.26H50.7a1.16,1.16,0,0,0,1.15-1.16s1-44.08,1-45.87L53,60.1A1.05,1.05,0,0,0,51.91,59H49a1,1,0,0,0-1,.64l-.33.78C45,67,27.44,107.21,27.44,107.21Zm19.77-3.38H34.52s11.61-28.42,13.2-31.9C47.45,77.44,47.21,103.83,47.21,103.83Zm0,51.51V131.2h-45A2.19,2.19,0,0,1,0,129V107.86a2.14,2.14,0,0,1,.3-1.1L37.76,36.24a3.43,3.43,0,0,1,3-1.71H76.38A3.45,3.45,0,0,1,79.83,38v65.86H90.4a1.28,1.28,0,0,1,1.28,1.28V131.2H76.51a1.28,1.28,0,0,1-1.28-1.29v-2.07a1.28,1.28,0,0,1,1.28-1.28H87.05V108.47H76.47a1.28,1.28,0,0,1-1.28-1.29v-68H41.42L5.15,107.54a4.44,4.44,0,0,0-.51,2.08v16.94H49.49a2.36,2.36,0,0,1,2.36,2.36V150.7H62.46a1,1,0,0,1,1,1v2.64a1,1,0,0,1-1,1Z"/></svg>