<svg id="Capa_1" data-name="Capa 1" xmlns="http://www.w3.org/2000/svg" xmlns:xlink="http://www.w3.org/1999/xlink" viewBox="0 0 220.06 189.87"><defs><style>.cls-1{fill:none;}.cls-2{clip-path:url(#clip-path);}.cls-3{fill:#e1e2fc;}.cls-4{fill:url(#Degradado_sin_nombre_2);}</style><clipPath id="clip-path"><rect class="cls-1" x="-1438.55" y="-502.67" width="1280" height="497.32"/></clipPath><linearGradient id="Degradado_sin_nombre_2" y1="94.94" x2="73.54" y2="94.94" gradientUnits="userSpaceOnUse"><stop offset="0" stop-color="#6770f2"/><stop offset="1" stop-color="#0052a7"/></linearGradient></defs><circle class="cls-3" cx="125.12" cy="94.94" r="94.94"/><path class="cls-4" d="M37,150.7H5.22a.58.58,0,0,1-.58-.58V131.79a.58.58,0,0,1,.58-.58H23.58a2.27,2.27,0,0,0,2.27-2.27V67.11a3.2,3.2,0,0,0-3.2-3.2H5.45a.59.59,0,0,1-.59-.59V50.06a.59.59,0,0,1,.47-.57C16.24,47.19,24,44.22,32.09,39.25l.3-.08H50.7a.59.59,0,0,1,.59.58v89.19a2.26,2.26,0,0,0,2.26,2.27H68.33a.58.58,0,0,1,.59.58v5.41A1.12,1.12,0,0,0,70,138.33h2.39a1.11,1.11,0,0,0,1.11-1.11v-8.59a2.06,2.06,0,0,0-2.06-2.06h-15a.58.58,0,0,1-.59-.58V35.11a.58.58,0,0,0-.58-.58H30.91l-.57.35C21.92,40.15,14,43.1,2.11,45.41A2.32,2.32,0,0,0,.23,47.69V66.22a2.31,2.31,0,0,0,2.31,2.32H20.62a.58.58,0,0,1,.59.59V126a.58.58,0,0,1-.59.58H2.38A2.39,2.39,0,0,0,0,129v24a2.38,2.38,0,0,0,2.38,2.38H37a1,1,0,0,0,1-1V151.7A1,1,0,0,0,37,150.7Z"/></svg>