<svg id="Capa_1" data-name="Capa 1" xmlns="http://www.w3.org/2000/svg" xmlns:xlink="http://www.w3.org/1999/xlink" viewBox="0 0 244.73 189.87"><defs><style>.cls-1{fill:none;}.cls-2{clip-path:url(#clip-path);}.cls-3{fill:#e1e2fc;}.cls-4{fill:url(#Degradado_sin_nombre_2);}</style><clipPath id="clip-path"><rect class="cls-1" x="-2535.1" y="-502.67" width="1280" height="497.32"/></clipPath><linearGradient id="Degradado_sin_nombre_2" y1="94.94" x2="95.69" y2="94.94" gradientUnits="userSpaceOnUse"><stop offset="0" stop-color="#6770f2"/><stop offset="1" stop-color="#0052a7"/></linearGradient></defs><circle class="cls-3" cx="149.79" cy="94.94" r="94.94"/><path class="cls-4" d="M88.81,134.43a1.51,1.51,0,0,0,2.12-.58A38.32,38.32,0,0,0,95.69,115c0-11.43-4.16-20.71-12.35-27.57h0c-8-6.74-20.51-10.15-37-10.15H42.09A2.06,2.06,0,0,1,40,75.07l1-12.29a2.06,2.06,0,0,1,2-1.88H86.66a2.06,2.06,0,0,0,2.06-2.06V36.75a2.06,2.06,0,0,0-2.06-2.06H16.5a2,2,0,0,0-2,1.87L8.53,101.42a2.06,2.06,0,0,0,2.05,2.24H40.14c9.18,0,15.61,1.12,19.12,3.33A9.58,9.58,0,0,1,64,115.83a9.94,9.94,0,0,1-4.55,8.74c-3.33,2.28-8.07,3.43-14.1,3.43a54.74,54.74,0,0,1-16.55-2.55,47.36,47.36,0,0,1-14.14-7.14l-.49-.36a2,2,0,0,0-3.06.7l-10.85,21a2.06,2.06,0,0,0,.63,2.62l.36.25a63.54,63.54,0,0,0,20.5,9.39A92.08,92.08,0,0,0,46,155.18a81.25,81.25,0,0,0,10-.59,1,1,0,0,0,.84-.65c.29-.77.84-2.16,1.27-3.27a1,1,0,0,0-1.12-1.38A77.2,77.2,0,0,1,46,150,87.25,87.25,0,0,1,23.08,147a62.19,62.19,0,0,1-15.36-6.32,2.07,2.07,0,0,1-.8-2.73L13,126.14a2.05,2.05,0,0,1,2.86-.83,53.75,53.75,0,0,0,11.35,5,59.62,59.62,0,0,0,18.11,2.8c7.09,0,12.81-1.46,17-4.34a15,15,0,0,0,6.79-13A14.67,14.67,0,0,0,62,102.64c-4.4-2.77-11.55-4.12-21.86-4.12H16.22a2.05,2.05,0,0,1-2-2.25l5-54.56a2.06,2.06,0,0,1,2.05-1.87H81.52a2.06,2.06,0,0,1,2.06,2v11.8a2.06,2.06,0,0,1-2.06,2.06H38.37a2.06,2.06,0,0,0-2,1.89L34.45,80.21a2.06,2.06,0,0,0,2,2.23h9.8c15.29,0,26.64,3,33.74,9S90.54,105,90.54,115a33.31,33.31,0,0,1-4.07,16.26,1.52,1.52,0,0,0,.52,2Z"/></svg>