<svg id="Capa_1" data-name="Capa 1" xmlns="http://www.w3.org/2000/svg" xmlns:xlink="http://www.w3.org/1999/xlink" viewBox="0 0 228.82 189.87"><defs><style>.cls-1{fill:none;}.cls-2{clip-path:url(#clip-path);}.cls-3{fill:#e1e2fc;}.cls-4{fill:url(#Degradado_sin_nombre_2);}</style><clipPath id="clip-path"><rect class="cls-1" x="-1986.83" y="-502.67" width="1280" height="497.32"/></clipPath><linearGradient id="Degradado_sin_nombre_2" y1="94.94" x2="87.96" y2="94.94" gradientUnits="userSpaceOnUse"><stop offset="0" stop-color="#6770f2"/><stop offset="1" stop-color="#0052a7"/></linearGradient></defs><circle class="cls-3" cx="133.88" cy="94.94" r="94.94"/><path class="cls-4" d="M41.23,150.66c-15.25-.2-27.6-4.91-35.89-13.7L16.5,121.52c7.3,6.13,15.23,9.47,22.55,9.47,11.63,0,18.58-4.83,18.58-12.93,0-11.07-7.61-15.44-27.89-15.74V85.78c11.09-.24,24.36-2.44,24.36-15,0-8-5.1-12.58-14-12.58-7.52,0-13,3-19.46,8.22L8.47,51.67c10.7-8.49,21.26-12.46,33.05-12.46,24,0,38.26,10.94,38.26,29.25,0,9.9-5.43,17.11-16.61,22h0a2.34,2.34,0,0,0-1.39,2.14v.71a2.34,2.34,0,0,0,1.65,2.24h0c12.34,3.77,19.35,12,19.85,23.28a1.39,1.39,0,0,0,1.4,1.31h1.87A1.4,1.4,0,0,0,88,118.74c-.48-12-7-21.08-18.74-26C79.34,87,84.46,78.9,84.46,68.46s-4.14-19.33-12-25.27c-7.46-5.67-18.17-8.66-31-8.66-13.42,0-25.81,4.91-37.86,15h0a2.33,2.33,0,0,0-.3,3.28L18.54,71.19a2.33,2.33,0,0,0,3.32.29h0c6.58-5.59,11.43-8.62,18.25-8.62,4,0,9.31.82,9.31,7.9,0,5.12-2.62,10.37-22,10.37h0a2.34,2.34,0,0,0-2.34,2.34v21.18A2.34,2.34,0,0,0,27.4,107h0C53,107,53,113.13,53,118.06c0,7.18-8.71,8.25-13.9,8.25-6.81,0-14.39-3.54-21.36-10h0a2.34,2.34,0,0,0-3.48.35L.44,135.75a2.36,2.36,0,0,0,.12,2.9h0c9.19,10.71,23.22,16.47,40.64,16.69a1,1,0,0,0,1-1v-2.66A1,1,0,0,0,41.23,150.66Z"/></svg>