<svg id="Capa_1" data-name="Capa 1" xmlns="http://www.w3.org/2000/svg" xmlns:xlink="http://www.w3.org/1999/xlink" viewBox="0 0 241.54 189.87"><defs><style>.cls-1{fill:none;}.cls-2{clip-path:url(#clip-path);}.cls-3{fill:#e1e2fc;}.cls-4{fill:url(#Degradado_sin_nombre_2);}</style><clipPath id="clip-path"><rect class="cls-1" x="-1701.95" y="-502.67" width="1280" height="497.32"/></clipPath><linearGradient id="Degradado_sin_nombre_2" y1="94.94" x2="86.47" y2="94.94" gradientUnits="userSpaceOnUse"><stop offset="0" stop-color="#6770f2"/><stop offset="1" stop-color="#0052a7"/></linearGradient></defs><circle class="cls-3" cx="146.6" cy="94.94" r="94.94"/><path class="cls-4" d="M42.86,150.6H6V133.8C33,109,52.55,91,52.55,75.07c0-10.64-6-17-16-17-7.69,0-13.64,5.09-18.18,9.54L5.57,54.76C16.66,43.51,26.4,39.27,40.79,39.27c21.41,0,35.8,13.69,35.8,34.06,0,17.1-16.66,36.34-31.17,51.18l-4.63,4.75,6.58-.83c5.32-.66,13.3-.38,18.25-.38H81.84V138.8a1,1,0,0,0,1,1h2.63a1,1,0,0,0,1-1V125.53a2.11,2.11,0,0,0-2.11-2.11H65.62c-3.38,0-12.45-.28-12.45-.28,13.89-14.75,28.06-32.85,28.06-49.81,0-11.39-4-21.12-11.4-28.14s-17.38-10.55-29-10.55c-16.3,0-27.56,5.2-40.16,18.56h0a2.32,2.32,0,0,0,.05,3.23L16.77,72.52a2.32,2.32,0,0,0,3.27,0h0c5.37-5.37,10.32-9.82,16.55-9.82C44,62.7,47.91,67,47.91,75.07,47.91,89,28,107.29,2.79,130.48h0a4.35,4.35,0,0,0-1.39,3.18v17.26a4.31,4.31,0,0,0,4.32,4.31H42.86a1,1,0,0,0,1-1V151.6A1,1,0,0,0,42.86,150.6Z"/></svg>