<svg xmlns="http://www.w3.org/2000/svg" viewBox="0 0 40 40"><defs><style>.cls-1{fill:#6770f2;}.cls-2{fill:#fff;}</style></defs><g id="Capa_2" data-name="Capa 2"><g id="Capa_2-2" data-name="Capa 2"><circle class="cls-1" cx="20" cy="20" r="20"/><path class="cls-2" d="M19.84,19.53A6.15,6.15,0,0,0,26,13.38a6.15,6.15,0,0,0-6.15-6.14,6.15,6.15,0,0,0-6.15,6.14,6.15,6.15,0,0,0,6.15,6.15Z"/><path class="cls-2" d="M30.6,26.87q-.06-.75-.21-1.62a12.38,12.38,0,0,0-.4-1.62,8.34,8.34,0,0,0-.66-1.51,5.63,5.63,0,0,0-1-1.31,4.32,4.32,0,0,0-1.44-.91A5,5,0,0,0,25,19.57,1.84,1.84,0,0,0,24,20c-.29.2-.65.42-1,.67a5.88,5.88,0,0,1-1.34.6,5.37,5.37,0,0,1-3.3,0,5.48,5.48,0,0,1-1.34-.6L16,20a1.79,1.79,0,0,0-1-.42,5,5,0,0,0-1.84.33,4.32,4.32,0,0,0-1.44.91,5.63,5.63,0,0,0-1,1.31A7.69,7.69,0,0,0,10,23.63a12.38,12.38,0,0,0-.4,1.62q-.15.87-.21,1.62c0,.48-.05,1-.05,1.5a4.21,4.21,0,0,0,1.26,3.21,4.5,4.5,0,0,0,3.24,1.18h12.3a4.52,4.52,0,0,0,3.24-1.18,4.21,4.21,0,0,0,1.26-3.21C30.65,27.86,30.63,27.35,30.6,26.87Z"/></g></g></svg>